<svg xmlns="http://www.w3.org/2000/svg" xmlns:xlink="http://www.w3.org/1999/xlink" width="500" zoomAndPan="magnify" viewBox="0 0 375 374.999991" height="500" preserveAspectRatio="xMidYMid meet" version="1.0"><path fill="#ffffff" d="M 352.152344 308.765625 L 22.847656 308.765625 C 20.429688 308.765625 18.453125 306.789062 18.453125 304.371094 L 18.453125 110.832031 C 18.453125 91.277344 33.171875 75.460938 51.40625 75.460938 L 108.964844 75.460938 C 111.378906 75.460938 113.355469 77.21875 113.355469 79.636719 C 114.457031 95.234375 114.015625 111.488281 113.578125 119.835938 C 113.578125 122.253906 111.597656 124.011719 109.183594 124.011719 L 105.226562 124.011719 C 101.492188 124.011719 98.417969 127.085938 98.417969 130.820312 C 98.417969 134.777344 101.492188 137.632812 105.226562 137.632812 L 269.773438 137.632812 C 273.507812 137.632812 276.582031 134.777344 276.582031 130.820312 C 276.582031 127.085938 273.507812 124.011719 269.773438 124.011719 L 265.597656 124.011719 C 263.179688 124.011719 261.421875 122.253906 261.203125 119.835938 C 260.984375 111.488281 260.542969 95.234375 261.421875 79.636719 C 261.644531 77.21875 263.621094 75.460938 265.816406 75.460938 L 323.8125 75.460938 C 341.828125 75.460938 356.546875 91.277344 356.546875 110.390625 L 356.546875 304.371094 C 356.546875 306.789062 354.570312 308.765625 352.152344 308.765625 Z M 27.242188 299.976562 L 347.757812 299.976562 L 347.757812 110.832031 C 347.757812 96.113281 336.996094 84.25 323.8125 84.25 L 269.992188 84.25 C 269.550781 95.890625 269.550781 107.535156 269.992188 115.222656 C 278.339844 115.445312 285.367188 122.253906 285.367188 130.820312 C 285.367188 139.609375 278.339844 146.417969 269.773438 146.417969 L 105.226562 146.417969 C 96.660156 146.417969 89.632812 139.609375 89.632812 130.820312 C 89.632812 122.253906 96.441406 115.445312 105.007812 115.222656 C 105.226562 107.535156 105.449219 95.890625 104.789062 84.25 L 51.40625 84.25 C 38.003906 84.25 27.242188 96.113281 27.242188 110.832031 Z M 27.242188 299.976562 " fill-opacity="1" fill-rule="evenodd"/><path fill="#ffffff" d="M 330.625 308.765625 L 44.15625 308.765625 C 41.738281 308.765625 39.761719 306.789062 39.761719 304.371094 L 39.761719 110.832031 C 39.761719 104.898438 43.9375 96.992188 51.40625 96.992188 L 109.621094 96.992188 C 112.039062 96.992188 114.015625 98.96875 114.015625 101.382812 C 114.015625 108.851562 113.796875 115.664062 113.578125 119.835938 C 113.578125 122.253906 111.597656 124.011719 109.183594 124.011719 L 105.226562 124.011719 C 101.492188 124.011719 98.417969 127.085938 98.417969 130.820312 C 98.417969 134.777344 101.492188 137.632812 105.226562 137.632812 L 269.773438 137.632812 C 273.507812 137.632812 276.582031 134.777344 276.582031 130.820312 C 276.582031 127.085938 273.507812 124.011719 269.773438 124.011719 L 265.597656 124.011719 C 263.179688 124.011719 261.421875 122.253906 261.203125 119.835938 C 260.984375 115.664062 260.984375 108.851562 260.984375 101.382812 C 260.984375 98.96875 262.960938 96.992188 265.378906 96.992188 L 323.8125 96.992188 C 331.0625 96.992188 335.015625 104.898438 335.015625 110.390625 L 335.015625 304.371094 C 335.015625 306.789062 333.039062 308.765625 330.625 308.765625 Z M 48.550781 299.976562 L 326.230469 299.976562 L 326.230469 110.390625 C 326.230469 108.414062 324.910156 105.777344 323.8125 105.777344 L 269.773438 105.777344 C 269.773438 109.292969 269.773438 112.585938 269.992188 115.222656 C 278.339844 115.445312 285.367188 122.253906 285.367188 130.820312 C 285.367188 139.609375 278.339844 146.417969 269.773438 146.417969 L 105.226562 146.417969 C 96.660156 146.417969 89.632812 139.609375 89.632812 130.820312 C 89.632812 122.253906 96.441406 115.445312 105.007812 115.222656 C 105.226562 112.585938 105.226562 109.292969 105.226562 105.777344 L 51.40625 105.777344 C 50.085938 105.777344 48.550781 108.414062 48.550781 110.832031 Z M 48.550781 299.976562 " fill-opacity="1" fill-rule="evenodd"/><path fill="#ffffff" d="M 344.902344 359.953125 L 30.097656 359.953125 C 13.402344 359.953125 0 346.550781 0 330.074219 L 0 304.371094 C 0 301.957031 1.976562 299.976562 4.394531 299.976562 L 370.605469 299.976562 C 373.023438 299.976562 375 301.957031 375 304.371094 L 375 330.074219 C 375 346.550781 361.378906 359.953125 344.902344 359.953125 Z M 8.789062 308.765625 L 8.789062 330.074219 C 8.789062 341.71875 18.453125 351.164062 30.097656 351.164062 L 344.902344 351.164062 C 356.546875 351.164062 366.210938 341.71875 366.210938 330.074219 L 366.210938 308.765625 Z M 8.789062 308.765625 " fill-opacity="1" fill-rule="evenodd"/><path fill="#ffffff" d="M 226.933594 331.832031 L 148.066406 331.832031 C 139.28125 331.832031 132.03125 324.582031 132.03125 316.015625 L 132.03125 304.371094 C 132.03125 301.957031 134.007812 299.976562 136.421875 299.976562 L 238.578125 299.976562 C 240.992188 299.976562 242.96875 301.957031 242.96875 304.371094 L 242.96875 316.015625 C 242.96875 324.582031 235.71875 331.832031 226.933594 331.832031 Z M 140.816406 308.765625 L 140.816406 316.015625 C 140.816406 319.75 144.113281 323.042969 148.066406 323.042969 L 226.933594 323.042969 C 230.886719 323.042969 234.183594 319.75 234.183594 316.015625 L 234.183594 308.765625 Z M 140.816406 308.765625 " fill-opacity="1" fill-rule="evenodd"/><path fill="#ffffff" d="M 265.597656 124.011719 L 109.183594 124.011719 C 108.085938 124.011719 106.984375 123.570312 106.105469 122.691406 C 105.226562 121.816406 104.789062 120.714844 104.789062 119.398438 C 106.546875 80.074219 103.03125 50.417969 96 44.046875 L 95.5625 43.828125 C 93.804688 42.289062 93.585938 39.433594 95.121094 37.675781 C 96.660156 35.699219 99.296875 35.480469 101.273438 36.796875 C 101.492188 37.015625 101.714844 37.238281 101.933594 37.457031 L 124.121094 56.128906 L 136.644531 22.738281 C 137.300781 21.417969 138.402344 20.320312 139.9375 20.101562 C 141.476562 19.660156 143.015625 20.320312 144.113281 21.417969 L 166.300781 46.683594 L 183.65625 17.246094 C 184.535156 15.925781 185.851562 15.046875 187.390625 15.046875 C 188.929688 15.046875 190.464844 15.925781 191.34375 17.246094 L 208.699219 46.683594 L 230.886719 21.417969 C 231.765625 20.320312 233.304688 19.660156 234.84375 20.101562 C 236.378906 20.320312 237.699219 21.417969 238.355469 22.738281 L 250.878906 56.128906 L 273.066406 37.457031 C 273.285156 37.238281 273.507812 37.015625 273.726562 36.796875 C 275.703125 35.480469 278.339844 35.699219 279.875 37.675781 C 281.414062 39.433594 281.195312 42.289062 279.21875 43.828125 L 278.777344 44.046875 C 271.96875 50.417969 268.453125 80.074219 269.992188 119.398438 C 269.992188 120.714844 269.550781 121.816406 268.894531 122.691406 C 268.015625 123.570312 266.914062 124.011719 265.597656 124.011719 Z M 113.796875 115.222656 L 260.984375 115.222656 C 260.542969 95.011719 260.765625 72.386719 264.5 56.128906 L 251.757812 66.894531 C 250.660156 67.773438 249.339844 67.992188 247.804688 67.773438 C 246.484375 67.332031 245.386719 66.234375 244.945312 64.917969 L 232.644531 32.621094 L 211.335938 57.007812 C 210.238281 58.105469 208.917969 58.546875 207.601562 58.546875 C 206.0625 58.324219 204.964844 57.667969 204.085938 56.347656 L 187.390625 28.230469 L 170.695312 56.347656 C 170.035156 57.667969 168.71875 58.324219 167.398438 58.546875 C 166.082031 58.765625 164.542969 58.105469 163.664062 57.007812 L 142.355469 32.621094 L 130.050781 64.917969 C 129.613281 66.234375 128.515625 67.332031 126.976562 67.773438 C 125.660156 67.992188 124.121094 67.773438 123.023438 66.894531 L 110.5 56.128906 C 114.015625 72.386719 114.457031 95.011719 113.796875 115.222656 Z M 113.796875 115.222656 " fill-opacity="1" fill-rule="evenodd"/><path fill="#ffffff" d="M 269.773438 146.417969 L 105.226562 146.417969 C 96.660156 146.417969 89.632812 139.609375 89.632812 130.820312 C 89.632812 122.253906 96.660156 115.222656 105.226562 115.222656 L 269.773438 115.222656 C 278.339844 115.222656 285.367188 122.253906 285.367188 130.820312 C 285.367188 139.609375 278.339844 146.417969 269.773438 146.417969 Z M 105.226562 124.011719 C 101.492188 124.011719 98.417969 127.085938 98.417969 130.820312 C 98.417969 134.554688 101.492188 137.632812 105.226562 137.632812 L 269.773438 137.632812 C 273.507812 137.632812 276.582031 134.554688 276.582031 130.820312 C 276.582031 127.085938 273.507812 124.011719 269.773438 124.011719 Z M 105.226562 124.011719 " fill-opacity="1" fill-rule="evenodd"/><path fill="#ffffff" d="M 187.390625 290.972656 C 150.042969 290.972656 119.726562 260.65625 119.726562 223.308594 C 119.726562 185.960938 150.042969 155.425781 187.390625 155.425781 C 224.738281 155.425781 255.273438 185.960938 255.273438 223.308594 C 255.273438 260.65625 224.738281 290.972656 187.390625 290.972656 Z M 187.390625 164.214844 C 154.878906 164.214844 128.515625 190.796875 128.515625 223.308594 C 128.515625 255.820312 154.878906 282.183594 187.390625 282.183594 C 219.902344 282.183594 246.484375 255.820312 246.484375 223.308594 C 246.484375 190.796875 219.902344 164.214844 187.390625 164.214844 Z M 187.390625 164.214844 " fill-opacity="1" fill-rule="evenodd"/><path fill="#ffffff" d="M 203.425781 261.972656 C 200.789062 261.972656 198.15625 261.3125 195.957031 259.996094 L 154.65625 236.269531 C 150.042969 233.414062 147.1875 228.582031 147.1875 223.308594 C 147.1875 218.035156 150.042969 212.984375 154.65625 210.347656 L 195.957031 186.402344 C 198.15625 185.304688 200.789062 184.425781 203.425781 184.425781 C 207.382812 184.425781 211.117188 185.960938 213.972656 188.816406 C 216.609375 191.675781 218.367188 195.410156 218.367188 199.363281 L 218.367188 247.035156 C 218.144531 255.382812 211.554688 261.972656 203.425781 261.972656 Z M 203.648438 193.210938 C 202.328125 193.210938 201.230469 193.652344 200.351562 194.089844 L 159.050781 218.035156 C 157.292969 218.914062 155.976562 221.113281 155.976562 223.308594 C 155.976562 225.503906 157.292969 227.480469 159.050781 228.582031 L 200.351562 252.308594 C 201.230469 252.964844 202.328125 253.183594 203.425781 253.183594 C 206.28125 253.183594 209.359375 250.769531 209.578125 247.035156 L 209.578125 199.363281 C 209.578125 197.824219 208.917969 196.289062 207.601562 194.96875 C 206.503906 193.871094 205.183594 193.210938 203.648438 193.210938 Z M 203.648438 193.210938 " fill-opacity="1" fill-rule="evenodd"/></svg>