<!DOCTYPE svg PUBLIC "-//W3C//DTD SVG 1.1//EN" "http://www.w3.org/Graphics/SVG/1.1/DTD/svg11.dtd">
<!-- Uploaded to: SVG Repo, www.svgrepo.com, Transformed by: SVG Repo Mixer Tools -->
<svg fill="#ffffff" height="800px" width="800px" version="1.1" id="Layer_1" xmlns="http://www.w3.org/2000/svg" xmlns:xlink="http://www.w3.org/1999/xlink" viewBox="0 0 512 512" xml:space="preserve" stroke="#ffffff">
<g id="SVGRepo_bgCarrier" stroke-width="0"/>
<g id="SVGRepo_tracerCarrier" stroke-linecap="round" stroke-linejoin="round"/>
<g id="SVGRepo_iconCarrier"> <g> <g> <path d="M237.291,415.073c-2.575-2.575-6.405-3.763-10.013-3.03c-0.71,0.133-1.41,0.355-2.076,0.633 c-0.677,0.277-1.321,0.622-1.92,1.021c-0.611,0.4-1.177,0.866-1.687,1.376s-0.977,1.077-1.376,1.687 c-0.4,0.599-0.744,1.243-1.021,1.92c-0.277,0.666-0.488,1.365-0.633,2.076s-0.222,1.443-0.222,2.165 c0,0.721,0.078,1.454,0.222,2.165c0.144,0.71,0.355,1.41,0.633,2.076c0.278,0.677,0.622,1.321,1.021,1.92 c0.4,0.611,0.866,1.177,1.376,1.687s1.077,0.977,1.687,1.376c0.599,0.4,1.243,0.744,1.92,1.021c0.666,0.278,1.365,0.5,2.076,0.633 c0.71,0.144,1.443,0.222,2.165,0.222c2.93,0,5.783-1.188,7.848-3.252c0.511-0.511,0.977-1.077,1.388-1.687 c0.4-0.599,0.744-1.243,1.021-1.92c0.278-0.666,0.488-1.365,0.633-2.076c0.144-0.71,0.211-1.443,0.211-2.165 C240.543,420.001,239.366,417.137,237.291,415.073z"/> </g> </g> <g> <g> <path d="M437.02,74.981C388.667,26.628,324.38,0,256,0c-0.2,0-0.397,0.007-0.596,0.008C255.371,0.007,255.34,0,255.306,0 c-0.045,0-0.09,0.01-0.135,0.01C187.94,0.222,124.725,26.188,76.779,73.225c-0.712,0.442-1.393,0.942-2.001,1.552 c-0.608,0.608-1.109,1.29-1.551,2C26.188,124.724,0.222,187.94,0.01,255.171c0,0.045-0.01,0.09-0.01,0.135 c0,0.033,0.007,0.064,0.008,0.098C0.008,255.603,0,255.801,0,256c0,68.38,26.628,132.667,74.98,181.019 C123.333,485.37,187.62,512,256,512s132.667-26.628,181.02-74.981C485.372,388.667,512,324.38,512,256 S485.372,123.333,437.02,74.981z M489.209,239.496c-21.352-7.686-64.615-21.626-120.527-31.152 c32.439-45.763,53.077-85.832,62.875-106.571C464.384,139.094,485.525,186.924,489.209,239.496z M408.719,79.113 c-20.773,9.82-60.774,30.441-106.451,62.819c-9.332-54.778-22.901-97.412-30.676-119.198 C323.814,26.189,371.405,46.853,408.719,79.113z M238.989,22.823c-7.78,21.814-21.325,64.407-30.645,119.107 c-45.024-31.916-84.536-52.408-105.551-62.392C139.842,47.328,187.096,26.573,238.989,22.823z M79.538,102.793 c9.985,21.015,30.478,60.529,62.392,105.551c-54.7,9.32-97.292,22.864-119.107,30.645 C26.573,187.095,47.328,139.842,79.538,102.793z M22.733,271.593c21.788,7.775,64.422,21.344,119.197,30.677 c-32.377,45.675-52.997,85.677-62.819,106.451C46.852,371.405,26.189,323.813,22.733,271.593z M255.293,466.745 c-1.47-4.487-3.037-9.445-4.661-14.837c-1.768-5.87-7.96-9.195-13.83-7.427s-9.195,7.96-7.427,13.83 c3.87,12.847,7.407,23.276,10.142,30.899c-52.581-3.681-100.417-24.821-137.744-57.653c20.74-9.798,60.811-30.438,106.575-62.877 c1.253,7.345,2.624,14.708,4.099,22.024c1.212,6.01,7.065,9.9,13.076,8.686c6.01-1.212,9.899-7.066,8.687-13.076 c-2.61-12.935-4.879-26.013-6.742-38.872c-0.562-3.874-3.121-7.164-6.738-8.663c-3.616-1.499-7.754-0.98-10.889,1.361 c-41.167,30.74-79.499,52.208-104.016,64.646c12.439-24.517,33.906-62.849,64.646-104.015c2.341-3.136,2.858-7.273,1.361-10.889 c-1.497-3.615-4.789-6.175-8.663-6.738c-50.855-7.375-93.149-19.302-119.278-27.844c26.097-8.534,68.343-20.447,119.278-27.833 c3.873-0.562,7.165-3.121,8.663-6.738s0.98-7.754-1.361-10.889c-30.74-41.167-52.208-79.499-64.646-104.015 c24.517,12.439,62.849,33.907,104.016,64.646c3.136,2.341,7.274,2.858,10.889,1.361c3.616-1.497,6.176-4.789,6.738-8.663 c7.375-50.856,19.302-93.149,27.844-119.278c8.534,26.097,20.447,68.343,27.833,119.278c0.562,3.874,3.121,7.164,6.738,8.663 c3.615,1.497,7.754,0.98,10.889-1.361c41.167-30.74,79.499-52.208,104.016-64.646c-12.439,24.517-33.906,62.849-64.646,104.015 c-2.341,3.136-2.858,7.273-1.361,10.889c1.497,3.615,4.789,6.175,8.663,6.738c50.855,7.375,93.149,19.302,119.278,27.844 c-26.097,8.534-68.343,20.447-119.278,27.833c-3.873,0.562-7.165,3.121-8.663,6.738s-0.98,7.754,1.361,10.889 c30.74,41.166,52.208,79.499,64.646,104.015c-24.517-12.439-62.849-33.907-104.016-64.646c-3.136-2.342-7.275-2.859-10.889-1.361 c-3.616,1.497-6.176,4.789-6.738,8.663C275.767,398.313,263.835,440.617,255.293,466.745z M271.083,489.3 c7.679-21.32,21.646-64.626,31.185-120.618c46.441,32.92,87.016,53.685,107.477,63.303 C372.159,464.864,323.986,485.913,271.083,489.3z M431.985,409.745c-9.617-20.462-30.381-61.036-63.303-107.477 c55.992-9.54,99.296-23.506,120.617-31.185C485.913,323.987,464.864,372.159,431.985,409.745z"/> </g> </g> <g> <g> <path d="M310.818,304.062c-17.123-9.909-27.761-28.326-27.761-48.062s10.637-38.153,27.761-48.062 c3.429-1.985,5.54-5.646,5.54-9.607s-2.111-7.623-5.54-9.607c-11.785-6.82-25.223-10.425-38.861-10.425 c-42.845,0-77.702,34.857-77.702,77.702c0,42.845,34.857,77.702,77.702,77.702c13.638,0,27.076-3.605,38.861-10.425 c3.429-1.985,5.54-5.646,5.54-9.607C316.358,309.708,314.246,306.047,310.818,304.062z M271.957,311.501 c-30.603,0-55.501-24.898-55.501-55.501s24.898-55.501,55.501-55.501c3.754,0,7.488,0.382,11.14,1.131 c-14.035,14.356-22.24,33.851-22.24,54.37s8.205,40.014,22.24,54.37C279.445,311.119,275.712,311.501,271.957,311.501z"/> </g> </g> </g>
</svg>