<svg xmlns="http://www.w3.org/2000/svg" xmlns:xlink="http://www.w3.org/1999/xlink" width="500" zoomAndPan="magnify" viewBox="0 0 375 374.999991" height="500" preserveAspectRatio="xMidYMid meet" version="1.0"><path fill="#ffffff" d="M 297.953125 211.234375 C 290.40625 202.050781 259.273438 189.167969 234.480469 179.976562 C 228.046875 177.59375 222.925781 175.78125 220.265625 174.847656 L 220.265625 158.46875 C 225.894531 153.550781 230.5625 147.558594 233.941406 140.949219 L 247.527344 140.949219 C 251.589844 140.949219 255.429688 139.578125 258.636719 136.976562 C 262.714844 133.644531 265.054688 128.714844 265.054688 123.453125 L 265.054688 103.035156 C 265.054688 97.792969 262.722656 92.859375 258.632812 89.480469 C 258.628906 89.480469 258.628906 89.476562 258.628906 89.472656 C 256.085938 87.410156 253.113281 86.167969 249.9375 85.738281 L 249.9375 58.304688 C 249.9375 26.15625 221.902344 0 187.4375 0 C 152.972656 0 124.9375 26.15625 124.9375 58.304688 L 124.9375 85.738281 C 121.773438 86.167969 118.808594 87.40625 116.261719 89.464844 C 116.253906 89.46875 116.242188 89.472656 116.238281 89.480469 C 116.234375 89.484375 116.230469 89.488281 116.226562 89.488281 C 112.152344 92.851562 109.816406 97.792969 109.816406 103.03125 L 109.816406 123.449219 C 109.816406 128.710938 112.15625 133.644531 116.246094 136.980469 C 116.347656 137.0625 116.460938 137.117188 116.566406 137.195312 C 116.585938 137.207031 116.605469 137.226562 116.628906 137.238281 C 119.753906 139.648438 123.441406 140.949219 127.351562 140.949219 L 128.421875 140.949219 L 128.421875 141.277344 C 128.421875 146.757812 132.878906 151.21875 138.363281 151.21875 L 147.652344 151.21875 C 149.742188 153.832031 152.074219 156.257812 154.617188 158.46875 L 154.617188 174.84375 C 151.953125 175.777344 146.832031 177.59375 140.394531 179.972656 C 115.605469 189.160156 84.46875 202.042969 76.921875 211.234375 C 55.191406 237.839844 51 323.195312 53.453125 339.421875 C 55.539062 353.34375 62.070312 362.21875 73.429688 366.554688 C 74.875 367.109375 79.277344 368.792969 119.890625 373.222656 C 129.640625 374.269531 137.035156 374.980469 137.035156 374.980469 C 137.128906 374.992188 137.226562 374.996094 137.320312 374.996094 C 137.320312 374.996094 137.320312 374.996094 137.324219 374.996094 L 237.472656 374.996094 C 237.566406 374.996094 237.664062 374.992188 237.757812 374.980469 C 237.757812 374.980469 246.378906 374.148438 257.289062 372.957031 C 274.742188 371.066406 296.570312 368.417969 301.453125 366.558594 C 312.8125 362.222656 319.347656 353.351562 321.429688 339.429688 C 323.878906 323.199219 319.6875 237.84375 297.953125 211.234375 Z M 231.683594 185.292969 L 245.746094 201.851562 L 225.335938 215.125 C 224.601562 215.605469 224.117188 216.382812 224.003906 217.25 C 223.894531 218.117188 224.179688 218.992188 224.769531 219.636719 L 241.417969 237.660156 C 227.191406 256.757812 208.777344 270.074219 185.441406 278.34375 C 185.679688 277.835938 185.867188 277.382812 186.128906 276.847656 C 186.15625 276.792969 186.191406 276.734375 186.214844 276.679688 C 186.226562 276.660156 186.242188 276.644531 186.25 276.617188 C 187.390625 274.367188 188.640625 272.039062 190.042969 269.527344 C 191.003906 267.773438 192.015625 265.957031 193.066406 264.078125 C 195.804688 259.175781 198.90625 253.617188 201.933594 247.65625 C 201.945312 247.632812 201.941406 247.609375 201.953125 247.585938 C 206.777344 238.070312 210.492188 229.21875 213.304688 220.523438 C 217.542969 207.367188 219.792969 194.433594 220.179688 181.132812 C 222.910156 182.097656 226.910156 183.53125 231.683594 185.292969 Z M 172.882812 208.152344 C 172.855469 208.179688 172.839844 208.21875 172.8125 208.242188 L 172.746094 208.300781 C 172.746094 208.300781 172.742188 208.304688 172.742188 208.304688 L 165.914062 214.324219 C 162.902344 203.890625 161.183594 193.5625 160.714844 183.019531 L 182.722656 199.5 Z M 177.050781 224 L 174.417969 237.054688 C 171.828125 231.382812 169.667969 225.914062 167.863281 220.53125 L 173.640625 215.441406 Z M 202.15625 208.328125 C 202.128906 208.292969 202.089844 208.269531 202.058594 208.242188 C 202.027344 208.214844 202.019531 208.175781 201.992188 208.152344 L 192.152344 199.503906 L 214.164062 183.023438 C 213.691406 193.566406 211.976562 203.894531 208.964844 214.320312 Z M 207.003906 220.519531 C 205.195312 225.882812 203.03125 231.332031 200.441406 236.988281 L 197.820312 223.996094 L 201.230469 215.4375 Z M 187.4375 195.597656 L 160.5625 175.476562 L 160.5625 163.125 C 168.871094 168.765625 178.050781 171.757812 187.4375 171.757812 C 196.828125 171.757812 206.011719 168.765625 214.3125 163.128906 L 214.3125 175.476562 Z M 187.4375 203.28125 L 196.492188 211.242188 L 192.710938 220.742188 L 182.164062 220.742188 L 178.378906 211.242188 Z M 251.554688 92.210938 C 248.296875 95.59375 244.128906 102.09375 244.128906 113.242188 C 244.128906 124.394531 248.296875 130.882812 251.554688 134.257812 C 250.273438 134.742188 248.917969 135 247.523438 135 L 236.582031 135 C 238.304688 130.214844 239.21875 125.40625 239.21875 120.894531 L 239.21875 91.488281 L 247.523438 91.488281 C 248.929688 91.488281 250.28125 91.742188 251.554688 92.210938 Z M 130.890625 58.304688 C 130.890625 29.4375 156.253906 5.953125 187.4375 5.953125 C 218.617188 5.953125 243.984375 29.4375 243.984375 58.304688 L 243.984375 85.535156 L 239.222656 85.535156 L 239.222656 61.042969 C 239.222656 37.726562 223.210938 14.195312 187.4375 14.195312 C 151.664062 14.195312 135.652344 37.722656 135.652344 61.042969 L 135.652344 85.535156 L 130.890625 85.535156 Z M 127.347656 135 C 125.949219 135 124.59375 134.742188 123.316406 134.257812 C 126.578125 130.882812 130.742188 124.394531 130.742188 113.242188 C 130.742188 102.09375 126.578125 95.59375 123.316406 92.210938 C 124.589844 91.742188 125.945312 91.488281 127.347656 91.488281 L 135.652344 91.488281 L 135.652344 120.894531 C 135.652344 125.40625 136.566406 130.207031 138.289062 135 Z M 138.355469 145.269531 C 136.15625 145.269531 134.367188 143.480469 134.367188 141.28125 L 134.367188 140.953125 L 140.933594 140.953125 C 141.6875 142.417969 142.457031 143.875 143.328125 145.269531 Z M 150.566406 145.269531 C 148.585938 142.578125 146.816406 139.730469 145.402344 136.722656 C 142.917969 131.355469 141.605469 125.882812 141.605469 120.894531 L 141.605469 90.195312 C 157.863281 80.722656 169.992188 69.433594 177.75 56.492188 C 177.484375 61.136719 176.742188 65.355469 175.519531 69.21875 C 175.167969 70.34375 175.503906 71.570312 176.386719 72.34375 C 177.265625 73.125 178.523438 73.308594 179.59375 72.824219 C 190.503906 67.847656 198.191406 60.269531 202.550781 50.226562 C 208.15625 64.613281 218.476562 77.914062 233.265625 89.898438 L 233.265625 120.894531 C 233.265625 125.882812 231.953125 131.355469 229.46875 136.710938 C 226.261719 143.566406 221.246094 150.027344 215.332031 154.929688 C 209.460938 159.890625 199.855469 165.804688 187.429688 165.804688 C 175.007812 165.804688 165.402344 159.890625 159.503906 154.90625 C 158.101562 153.75 156.789062 152.507812 155.527344 151.21875 L 173.847656 151.21875 C 175.433594 156.132812 180.804688 159.671875 187.429688 159.671875 C 195.339844 159.671875 201.539062 154.652344 201.539062 148.242188 C 201.539062 141.835938 195.339844 136.816406 187.429688 136.816406 C 180.804688 136.816406 175.433594 140.355469 173.847656 145.269531 Z M 179.277344 148.242188 C 179.277344 145.277344 183.015625 142.769531 187.433594 142.769531 C 191.855469 142.769531 195.589844 145.277344 195.589844 148.242188 C 195.589844 151.210938 191.855469 153.71875 187.433594 153.71875 C 183.015625 153.71875 179.277344 151.210938 179.277344 148.242188 Z M 143.40625 185.210938 C 148.085938 183.488281 152.003906 182.082031 154.691406 181.132812 C 155.078125 194.433594 157.328125 207.367188 161.566406 220.519531 C 161.566406 220.53125 161.570312 220.539062 161.574219 220.546875 C 161.597656 220.621094 161.617188 220.695312 161.648438 220.765625 C 164.433594 229.417969 168.113281 238.214844 172.902344 247.65625 C 176.054688 253.863281 179.277344 259.613281 182.121094 264.6875 C 182.78125 265.863281 183.402344 266.984375 184.03125 268.109375 C 183.394531 269.269531 182.78125 270.40625 182.199219 271.507812 C 166.105469 263.367188 152.558594 252.773438 141.945312 239.90625 L 155.066406 219.9375 C 155.519531 219.25 155.667969 218.402344 155.472656 217.601562 C 155.277344 216.800781 154.761719 216.113281 154.042969 215.710938 L 132.082031 203.3125 Z M 118.984375 289.699219 L 118.984375 256.816406 C 118.984375 250.605469 117.347656 244.449219 114.242188 238.992188 L 103.707031 220.660156 C 102.890625 219.234375 101.066406 218.742188 99.644531 219.5625 C 98.21875 220.382812 97.730469 222.203125 98.546875 223.625 L 109.078125 241.945312 C 111.667969 246.492188 113.03125 251.636719 113.03125 256.816406 L 113.03125 289.007812 C 107.945312 288.542969 103.191406 288.402344 98.902344 288.695312 C 75.195312 290.269531 66.476562 304.140625 66.117188 304.730469 C 65.261719 306.128906 65.703125 307.945312 67.09375 308.804688 C 67.578125 309.105469 68.117188 309.246094 68.652344 309.246094 C 69.644531 309.246094 70.621094 308.75 71.1875 307.84375 C 71.492188 307.359375 78.839844 295.992188 99.304688 294.636719 C 104.992188 294.253906 111.566406 294.636719 118.835938 295.695312 C 115.828125 302.226562 110.183594 316.46875 109.578125 332.558594 C 108.988281 347.605469 112.878906 360.199219 115.441406 366.746094 C 85.058594 363.355469 77.367188 361.695312 75.546875 360.996094 C 66.246094 357.449219 61.09375 350.316406 59.335938 338.542969 C 57.214844 324.546875 60.886719 240.269531 81.519531 215.015625 C 86.234375 209.273438 105.277344 199.785156 134.21875 188.671875 L 125.386719 202.796875 C 124.953125 203.484375 124.824219 204.320312 125.023438 205.109375 C 125.222656 205.898438 125.738281 206.570312 126.445312 206.96875 L 148.34375 219.332031 L 135.777344 238.457031 C 135.070312 239.53125 135.132812 240.933594 135.933594 241.941406 C 147.292969 256.257812 161.988281 267.96875 179.570312 276.851562 C 178.679688 278.804688 177.898438 280.65625 177.332031 282.3125 C 176.625 284.3125 176.164062 286.15625 175.886719 287.894531 C 174.421875 287.835938 173.117188 287.992188 171.945312 288.382812 C 171.933594 288.382812 171.921875 288.378906 171.910156 288.382812 L 156.714844 291.890625 C 153.480469 292.621094 150.484375 294.136719 147.910156 296.222656 C 146.042969 295.640625 143.003906 294.726562 139.320312 293.789062 C 134.015625 292.394531 128.789062 291.265625 123.8125 290.429688 C 122.160156 290.140625 120.578125 289.925781 118.984375 289.699219 Z M 139.277344 369.046875 C 137.34375 364.285156 132.21875 350.019531 132.195312 332.523438 C 132.152344 313.15625 137.464844 303.335938 139.714844 300.046875 C 141.097656 300.417969 142.339844 300.769531 143.441406 301.09375 C 141.09375 304.628906 139.789062 308.820312 139.789062 313.128906 L 139.789062 355.71875 C 139.789062 360.890625 141.851562 365.582031 145.179688 369.050781 L 139.277344 369.050781 Z M 164.015625 334.613281 L 194.730469 334.613281 C 198.667969 334.613281 201.871094 337.804688 201.871094 341.726562 C 201.871094 343.617188 201.128906 345.410156 199.8125 346.75 C 198.441406 348.097656 196.636719 348.84375 194.730469 348.84375 L 164.015625 348.84375 C 162.371094 348.84375 161.039062 350.175781 161.039062 351.820312 C 161.039062 353.460938 162.371094 354.792969 164.015625 354.792969 L 194.730469 354.792969 C 198.667969 354.792969 201.871094 358 201.871094 361.9375 C 201.871094 363.828125 201.128906 365.621094 199.8125 366.960938 C 198.441406 368.304688 196.636719 369.046875 194.730469 369.046875 L 159.105469 369.046875 C 151.734375 369.046875 145.742188 363.066406 145.742188 355.714844 L 145.742188 313.125 C 145.742188 308.816406 147.515625 304.65625 150.628906 301.699219 C 152.703125 299.707031 155.261719 298.320312 158.046875 297.695312 L 166.332031 295.78125 C 165.980469 298.566406 166.601562 301.632812 168.199219 304.507812 C 169.039062 306.023438 170.105469 307.328125 171.257812 308.457031 L 164.015625 308.457031 C 162.371094 308.457031 161.039062 309.789062 161.039062 311.429688 C 161.039062 313.074219 162.371094 314.40625 164.015625 314.40625 L 194.730469 314.40625 C 198.667969 314.40625 201.871094 317.597656 201.871094 321.519531 C 201.871094 323.429688 201.128906 325.234375 199.8125 326.570312 C 198.441406 327.921875 196.636719 328.664062 194.730469 328.664062 L 164.015625 328.664062 C 162.371094 328.664062 161.039062 329.996094 161.039062 331.640625 C 161.039062 333.28125 162.367188 334.613281 164.015625 334.613281 Z M 229.128906 356.519531 C 229.128906 363.425781 223.507812 369.046875 216.601562 369.046875 L 205.707031 369.046875 C 207.078125 366.9375 207.824219 364.488281 207.824219 361.933594 C 207.824219 359.296875 207.027344 356.847656 205.679688 354.792969 L 212.195312 354.792969 C 213.839844 354.792969 215.171875 353.457031 215.171875 351.816406 C 215.171875 350.171875 213.839844 348.839844 212.195312 348.839844 L 205.707031 348.839844 C 207.078125 346.726562 207.820312 344.28125 207.820312 341.726562 C 207.820312 339.101562 207.027344 336.664062 205.683594 334.613281 L 212.195312 334.613281 C 213.839844 334.613281 215.171875 333.28125 215.171875 331.636719 C 215.171875 329.992188 213.839844 328.660156 212.195312 328.660156 L 205.703125 328.660156 C 207.078125 326.542969 207.820312 324.085938 207.820312 321.519531 C 207.820312 318.894531 207.027344 316.457031 205.683594 314.40625 L 212.195312 314.40625 C 213.839844 314.40625 215.171875 313.070312 215.171875 311.429688 C 215.171875 309.785156 213.839844 308.453125 212.195312 308.453125 L 182.300781 308.453125 C 181.808594 308.28125 175.898438 306.132812 173.398438 301.621094 C 172.195312 299.449219 171.839844 297.152344 172.453125 295.472656 C 172.640625 294.96875 172.996094 294.308594 173.652344 294.054688 C 174.59375 293.691406 176 293.714844 177.933594 294.128906 C 180.097656 294.597656 182.589844 295.519531 185 296.414062 C 188.941406 297.875 192.667969 299.257812 196.035156 299.257812 C 198.902344 299.257812 201.410156 298.820312 203.828125 298.394531 C 207.441406 297.765625 210.855469 297.167969 215.671875 297.910156 C 217.027344 298.117188 218.464844 298.710938 220.050781 299.707031 C 221.105469 300.382812 222.058594 301.15625 222.980469 302.074219 C 223.003906 302.097656 223.03125 302.105469 223.054688 302.128906 C 226.917969 305.925781 229.128906 311.417969 229.128906 317.203125 Z M 235.640625 369.046875 L 230.148438 369.046875 C 233.203125 365.75 235.082031 361.355469 235.082031 356.519531 L 235.082031 317.203125 C 235.082031 311.46875 233.335938 305.949219 230.214844 301.460938 C 231.160156 301.175781 232.226562 300.859375 233.410156 300.527344 C 235.734375 304.394531 241.183594 315.53125 241.183594 335.089844 C 241.1875 354.894531 237.265625 365.5 235.640625 369.046875 Z M 315.53125 338.546875 C 313.773438 350.320312 308.621094 357.453125 299.320312 361 C 296.289062 362.15625 282.167969 364.203125 261.195312 366.539062 C 263.035156 360.1875 265.886719 347.6875 265.292969 332.566406 C 264.6875 316.46875 259.042969 302.226562 256.03125 295.695312 C 263.21875 294.648438 269.804688 294.261719 275.570312 294.636719 C 296.03125 295.992188 303.378906 307.359375 303.675781 307.832031 C 304.234375 308.75 305.214844 309.257812 306.214844 309.257812 C 306.742188 309.257812 307.277344 309.117188 307.765625 308.820312 C 309.167969 307.964844 309.613281 306.132812 308.753906 304.730469 C 308.394531 304.144531 299.675781 290.269531 275.960938 288.695312 C 271.632812 288.421875 266.878906 288.558594 261.839844 289.019531 L 261.839844 256.816406 C 261.839844 251.636719 263.203125 246.496094 265.789062 241.957031 L 276.324219 223.625 C 277.140625 222.199219 276.652344 220.382812 275.226562 219.5625 C 273.804688 218.742188 271.980469 219.238281 271.164062 220.660156 L 260.621094 239.003906 C 257.523438 244.449219 255.886719 250.605469 255.886719 256.816406 L 255.886719 289.703125 C 254.300781 289.925781 252.71875 290.140625 251.078125 290.429688 C 245.730469 291.324219 240.117188 292.5625 233.917969 294.210938 C 230.390625 295.164062 227.585938 296.03125 225.792969 296.609375 C 224.984375 295.917969 224.152344 295.269531 223.242188 294.679688 C 220.925781 293.230469 218.746094 292.363281 216.578125 292.03125 C 210.796875 291.140625 206.550781 291.882812 202.804688 292.53125 C 200.535156 292.929688 198.390625 293.304688 196.035156 293.304688 C 193.734375 293.304688 190.339844 292.046875 187.066406 290.832031 C 185.304688 290.179688 183.515625 289.570312 181.734375 289.03125 C 181.890625 287.984375 182.144531 286.863281 182.511719 285.664062 C 209.851562 277.015625 231.78125 261.390625 247.679688 239.171875 C 248.503906 238.023438 248.402344 236.457031 247.449219 235.421875 L 231.535156 218.191406 L 251.824219 204.992188 C 252.542969 204.527344 253.019531 203.773438 253.144531 202.929688 C 253.269531 202.082031 253.023438 201.222656 252.46875 200.570312 L 243.199219 189.652344 C 270.707031 200.339844 288.773438 209.4375 293.34375 215.007812 C 313.980469 240.269531 317.652344 324.546875 315.53125 338.546875 Z M 315.53125 338.546875 " fill-opacity="1" fill-rule="nonzero"/></svg>