<svg xmlns="http://www.w3.org/2000/svg" xmlns:xlink="http://www.w3.org/1999/xlink" width="500" zoomAndPan="magnify" viewBox="0 0 375 374.999991" height="500" preserveAspectRatio="xMidYMid meet" version="1.0"><defs><clipPath id="c9f0aed7fc"><path d="M 0 204 L 375 204 L 375 373.921875 L 0 373.921875 Z M 0 204 " clip-rule="nonzero"/></clipPath><clipPath id="ef92b14f27"><path d="M 7 1.171875 L 194 1.171875 L 194 214 L 7 214 Z M 7 1.171875 " clip-rule="nonzero"/></clipPath></defs><path fill="#ffffff" d="M 20.078125 145.867188 C 7.535156 152.410156 -0.0195312 160.484375 -0.0195312 168.28125 C -0.0195312 184.019531 29.21875 197.28125 73.746094 206.1875 C 49.683594 181.820312 32.410156 163.25 20.078125 145.867188 Z M 20.078125 145.867188 " fill-opacity="1" fill-rule="nonzero"/><g clip-path="url(#c9f0aed7fc)"><path fill="#ffffff" d="M 187.46875 238.820312 C 170.675781 238.820312 51.984375 237.601562 0.84375 204.058594 C 9.78125 299.28125 89.90625 373.8125 187.46875 373.8125 C 285.03125 373.8125 365.15625 299.28125 374.09375 204.058594 C 322.945312 237.59375 204.261719 238.820312 187.46875 238.820312 Z M 271.390625 327.5 C 269.832031 328.3125 268.089844 328.816406 266.21875 328.816406 C 260.003906 328.816406 254.972656 323.777344 254.972656 317.570312 C 254.972656 313.304688 257.375 309.640625 260.867188 307.734375 C 280.578125 295.71875 297.222656 279.042969 309.132812 259.253906 C 311.105469 256.011719 314.644531 253.828125 318.71875 253.828125 C 324.933594 253.828125 329.964844 258.863281 329.964844 265.074219 C 329.964844 267.015625 329.425781 268.816406 328.558594 270.414062 C 316.929688 290.1875 295.703125 312.820312 271.398438 327.507812 Z M 271.390625 327.5 " fill-opacity="1" fill-rule="nonzero"/></g><path fill="#ffffff" d="M 317.40625 132.34375 L 241.738281 214.28125 C 319.054688 208.269531 374.953125 189.714844 374.953125 167.660156 C 374.953125 153.796875 353.128906 141.226562 317.40625 132.351562 Z M 317.40625 132.34375 " fill-opacity="1" fill-rule="nonzero"/><path fill="#ffffff" d="M 148.957031 215.289062 C 161.386719 215.96875 174.265625 216.328125 187.46875 216.328125 C 198.621094 216.328125 209.519531 216.0625 220.132812 215.578125 L 310.167969 118.046875 C 312.945312 118.539062 315.792969 118.839844 318.710938 118.839844 C 345.632812 118.839844 367.457031 97.019531 367.457031 70.09375 C 367.457031 43.171875 345.632812 21.347656 318.710938 21.347656 C 291.785156 21.347656 269.964844 43.171875 269.964844 70.09375 C 269.964844 74.371094 270.5625 78.488281 271.601562 82.433594 L 148.957031 215.296875 Z M 148.957031 215.289062 " fill-opacity="1" fill-rule="nonzero"/><g clip-path="url(#ef92b14f27)"><path fill="#ffffff" d="M 57.460938 86.925781 C 54.457031 84.90625 52.476562 81.476562 52.476562 77.589844 C 52.476562 71.375 57.515625 66.34375 63.722656 66.34375 C 66.070312 66.34375 68.253906 67.0625 70.0625 68.300781 C 107.429688 96.207031 141.054688 130.84375 169.609375 170.816406 L 193.078125 145.398438 C 189.566406 124.128906 179.441406 88.324219 149.976562 58.855469 C 107.375 16.257812 71.484375 54.261719 16.863281 1.148438 C 10.96875 13.277344 7.488281 27.976562 7.488281 43.859375 C 7.488281 114.964844 21.019531 132.179688 99.148438 210.492188 C 108.90625 211.859375 119.121094 213.035156 129.816406 213.941406 L 155.25 186.382812 C 127.296875 147.511719 94.257812 113.90625 57.46875 86.941406 Z M 57.460938 86.925781 " fill-opacity="1" fill-rule="nonzero"/></g></svg>