<svg xmlns="http://www.w3.org/2000/svg" xmlns:xlink="http://www.w3.org/1999/xlink" width="500" zoomAndPan="magnify" viewBox="0 0 375 374.999991" height="500" preserveAspectRatio="xMidYMid meet" version="1.0"><defs><clipPath id="de67680c48"><path d="M 0 13 L 375 13 L 375 361.90625 L 0 361.90625 Z M 0 13 " clip-rule="nonzero"/></clipPath></defs><g clip-path="url(#de67680c48)"><path fill="#ffffff" d="M 41.855469 355.257812 C 41.84375 356.902344 42.496094 358.480469 43.664062 359.644531 C 44.828125 360.804688 46.410156 361.449219 48.058594 361.433594 L 95.222656 360.9375 C 98.578125 360.902344 101.285156 358.175781 101.296875 354.820312 C 101.296875 354.820312 101.605469 262.714844 101.6875 237.792969 L 151.886719 238.089844 L 149.714844 354.363281 C 149.679688 356.027344 150.332031 357.636719 151.507812 358.8125 C 152.6875 359.992188 154.292969 360.644531 155.960938 360.613281 L 325.484375 357.628906 C 328.804688 357.570312 331.472656 354.886719 331.515625 351.566406 L 333.480469 195.914062 L 368.308594 196.257812 C 370.832031 196.285156 373.113281 194.757812 374.058594 192.417969 C 375.007812 190.078125 374.421875 187.394531 372.585938 185.660156 L 191.90625 14.8125 C 189.550781 12.585938 185.871094 12.574219 183.503906 14.785156 L 121.101562 73.003906 C 121.101562 73.003906 121.28125 58.679688 121.28125 58.679688 C 121.300781 57.027344 120.65625 55.433594 119.488281 54.265625 C 118.320312 53.097656 116.730469 52.445312 115.078125 52.464844 L 70.441406 52.957031 C 67.070312 52.996094 64.359375 55.746094 64.371094 59.113281 L 64.574219 125.523438 L 2.347656 186.257812 C 0.5 188.058594 -0.0234375 190.816406 1.03125 193.167969 C 2.085938 195.515625 4.496094 196.957031 7.0625 196.777344 L 42.835938 194.257812 C 42.644531 225.347656 41.855469 355.257812 41.855469 355.257812 Z M 54.167969 349.089844 L 55.152344 187.707031 C 55.164062 185.996094 54.457031 184.359375 53.210938 183.191406 C 51.964844 182.019531 50.289062 181.425781 48.582031 181.542969 L 22.898438 183.351562 L 75.007812 132.496094 C 76.195312 131.335938 76.867188 129.746094 76.859375 128.085938 L 76.667969 65.167969 L 108.925781 64.808594 L 108.640625 87.21875 C 108.609375 89.679688 110.046875 91.917969 112.296875 92.914062 C 114.542969 93.90625 117.167969 93.464844 118.964844 91.785156 L 187.660156 27.691406 L 352.777344 183.828125 L 327.480469 183.574219 C 324.097656 183.539062 321.324219 186.25 321.28125 189.632812 L 319.3125 345.457031 L 162.109375 348.226562 C 162.109375 348.226562 164.273438 232.105469 164.273438 232.105469 C 164.304688 230.460938 163.675781 228.878906 162.527344 227.703125 C 161.382812 226.527344 159.816406 225.859375 158.171875 225.847656 L 95.605469 225.480469 C 93.972656 225.472656 92.40625 226.113281 91.25 227.257812 C 90.089844 228.40625 89.433594 229.96875 89.429688 231.597656 C 89.429688 231.597656 89.121094 323.953125 89.039062 348.726562 L 54.167969 349.089844 " fill-opacity="1" fill-rule="evenodd"/></g><path fill="#ffffff" d="M 187.964844 327.226562 C 187.984375 328.863281 188.660156 330.429688 189.839844 331.566406 C 191.023438 332.703125 192.609375 333.320312 194.25 333.28125 L 287.25 331.050781 C 290.542969 330.972656 293.1875 328.308594 293.242188 325.019531 L 294.792969 231.578125 C 294.824219 229.925781 294.183594 228.335938 293.023438 227.160156 C 291.863281 225.988281 290.28125 225.328125 288.628906 225.335938 L 192.851562 225.769531 C 191.214844 225.777344 189.652344 226.441406 188.5 227.605469 C 187.355469 228.773438 186.722656 230.351562 186.742188 231.988281 Z M 200.160156 320.859375 L 199.097656 238.019531 L 282.414062 237.640625 L 281.0625 318.921875 L 200.160156 320.859375 " fill-opacity="1" fill-rule="evenodd"/><path fill="#ffffff" d="M 249.359375 275.445312 L 248.410156 231.550781 L 236.136719 231.816406 L 237.085938 275.597656 L 193.367188 276.214844 C 189.976562 276.261719 187.265625 279.050781 187.3125 282.4375 C 187.359375 285.828125 190.148438 288.535156 193.535156 288.488281 L 237.351562 287.886719 L 238.179688 326.074219 C 238.25 329.460938 241.0625 332.152344 244.445312 332.082031 C 247.832031 332.003906 250.523438 329.199219 250.449219 325.808594 L 249.625 287.71875 L 287.375 287.199219 C 290.761719 287.152344 293.476562 284.363281 293.429688 280.976562 C 293.382812 277.59375 290.59375 274.878906 287.203125 274.925781 L 249.359375 275.445312 " fill-opacity="1" fill-rule="evenodd"/></svg>