<!DOCTYPE svg PUBLIC "-//W3C//DTD SVG 1.1//EN" "http://www.w3.org/Graphics/SVG/1.1/DTD/svg11.dtd">
<!-- Uploaded to: SVG Repo, www.svgrepo.com, Transformed by: SVG Repo Mixer Tools -->
<svg fill="#ffffff" height="800px" width="800px" version="1.1" id="Capa_1" xmlns="http://www.w3.org/2000/svg" xmlns:xlink="http://www.w3.org/1999/xlink" viewBox="0 0 18.514 18.514" xml:space="preserve" stroke="#ffffff">
<g id="SVGRepo_bgCarrier" stroke-width="0"/>
<g id="SVGRepo_tracerCarrier" stroke-linecap="round" stroke-linejoin="round"/>
<g id="SVGRepo_iconCarrier"> <g> <path d="M16.84,14.61c0,0,1.459-0.145,1.479-0.812s-1.666-0.978-2.062-1.146c-0.395-0.167-0.5-0.249-0.5-0.249 s0.02-0.25-0.104-0.417c-0.127-0.167-0.104-0.646-0.104-0.646s0.146-0.043,0.582-0.271c0.438-0.229,0.875-0.417,0.897-0.896 c0.02-0.479-0.709-0.958-1.584-1.208c-0.875-0.25-1.854-0.459-1.854-0.459s-0.292-0.228-0.25-0.437 c0.042-0.208,0.083-0.396,0.083-0.396s1.499-0.479,1.521-1.481c0.021-0.998-0.98-1.187-2.043-1.539 c-1.063-0.355-1.479-0.606-2-0.98c-0.52-0.374-0.854-0.75-0.854-0.75s0.084-0.418-0.021-0.666C9.923,2.006,9.672,1.88,9.672,1.88 l-0.02-0.331c0,0,0.167-0.061,0.104-0.167c-0.007-0.01-0.011-0.02-0.015-0.03c0.191-0.135,0.316-0.357,0.316-0.608 C10.058,0.333,9.726,0,9.317,0c-0.41,0-0.742,0.333-0.742,0.743c0,0.207,0.083,0.393,0.219,0.527 C8.773,1.318,8.764,1.377,8.82,1.422C8.922,1.507,8.922,1.86,8.922,1.86S8.528,2.008,8.508,2.382 c-0.022,0.375,0.02,0.542,0.02,0.542s-1.022,1.25-2.313,1.707C4.923,5.09,4.027,5.195,3.737,5.902 C3.444,6.61,4.069,7.05,4.34,7.216c0.272,0.166,0.812,0.521,0.812,0.521L5.11,8.342c0,0-0.228,0.165-0.437,0.248 c-0.208,0.083-2.146,0.479-2.771,1c-0.624,0.522-0.331,1.016,0.021,1.25c0.353,0.235,1.166,0.605,1.209,0.688 c0.041,0.085-0.043,0.708-0.043,0.708s-1.144,0.437-1.832,0.688c-0.687,0.25-1.062,0.437-1.062,0.914c0,0.481,0.729,0.668,1,0.732 c0.271,0.062,0.5,0.062,0.5,0.062v2.471h-1.3v1.411h17.86v-1.411h-1.416L16.84,14.61L16.84,14.61z M10.378,6.683 c1.324,0.141,2.211,0.536,2.595,0.74v0.643c-0.396-0.146-1.313-0.439-2.595-0.562V6.683z M8.839,0.777 c0-0.166,0.135-0.302,0.304-0.302c0.165,0,0.302,0.137,0.302,0.302c0,0.168-0.137,0.303-0.302,0.303 C8.974,1.08,8.839,0.945,8.839,0.777z M5.475,7.542c0.399-0.247,1.421-0.76,3.115-0.886v0.806c-1.436,0.1-2.662,0.548-3.115,0.733 V7.542z M3.501,11.16c0.536-0.275,2.647-1.202,6.525-1.133c2.812,0.051,4.604,0.84,5.164,1.127v0.867 c-0.64-0.291-2.895-1.198-6.081-1.181c-2.656,0.017-5.022,0.896-5.609,1.129L3.501,11.16L3.501,11.16z M2.323,14.525 c0,0,2.602-1.655,7.149-1.572c4.131,0.076,6.857,1.572,6.857,1.572v2.562h-4.572v-2.434h-1.021v2.434h-0.553v-2.434H8.705v2.434 H8.152v-2.434h-1.02v2.434h-4.85L2.323,14.525z"/> </g> </g>
</svg>