<svg xmlns="http://www.w3.org/2000/svg" xmlns:xlink="http://www.w3.org/1999/xlink" width="500" zoomAndPan="magnify" viewBox="0 0 375 374.999991" height="500" preserveAspectRatio="xMidYMid meet" version="1.0"><defs><clipPath id="36377dc989"><path d="M 33.515625 363 L 341.765625 363 L 341.765625 375 L 33.515625 375 Z M 33.515625 363 " clip-rule="nonzero"/></clipPath></defs><path fill="#ffffff" d="M 165.796875 63.859375 C 165.796875 63.09375 165.835938 62.328125 165.910156 61.566406 C 165.984375 60.804688 166.097656 60.046875 166.246094 59.292969 C 166.394531 58.542969 166.578125 57.800781 166.800781 57.066406 C 167.023438 56.332031 167.28125 55.609375 167.574219 54.902344 C 167.867188 54.195312 168.195312 53.5 168.554688 52.824219 C 168.917969 52.148438 169.308594 51.492188 169.734375 50.855469 C 170.160156 50.214844 170.617188 49.601562 171.101562 49.007812 C 171.589844 48.414062 172.105469 47.847656 172.644531 47.304688 C 173.1875 46.761719 173.753906 46.25 174.347656 45.761719 C 174.941406 45.277344 175.554688 44.820312 176.191406 44.394531 C 176.828125 43.96875 177.484375 43.574219 178.160156 43.210938 C 178.839844 42.851562 179.53125 42.523438 180.238281 42.230469 C 180.945312 41.9375 181.667969 41.675781 182.402344 41.453125 C 183.136719 41.230469 183.878906 41.046875 184.628906 40.894531 C 185.382812 40.746094 186.140625 40.632812 186.902344 40.558594 C 187.664062 40.484375 188.429688 40.445312 189.195312 40.445312 C 189.964844 40.445312 190.726562 40.484375 191.492188 40.558594 C 192.253906 40.632812 193.011719 40.746094 193.761719 40.894531 C 194.515625 41.046875 195.257812 41.230469 195.992188 41.453125 C 196.726562 41.675781 197.445312 41.9375 198.152344 42.230469 C 198.863281 42.523438 199.554688 42.851562 200.230469 43.210938 C 200.90625 43.574219 201.5625 43.96875 202.199219 44.394531 C 202.839844 44.820312 203.453125 45.277344 204.046875 45.761719 C 204.636719 46.25 205.207031 46.761719 205.746094 47.304688 C 206.289062 47.847656 206.804688 48.414062 207.289062 49.007812 C 207.773438 49.601562 208.230469 50.214844 208.65625 50.855469 C 209.082031 51.492188 209.476562 52.148438 209.835938 52.824219 C 210.199219 53.5 210.523438 54.195312 210.816406 54.902344 C 211.109375 55.609375 211.367188 56.332031 211.589844 57.066406 C 211.8125 57.800781 212 58.542969 212.148438 59.292969 C 212.296875 60.046875 212.410156 60.804688 212.484375 61.566406 C 212.558594 62.328125 212.59375 63.09375 212.59375 63.859375 L 212.59375 68.386719 L 219.058594 68.386719 L 219.058594 39.945312 L 157.140625 39.945312 L 157.140625 68.386719 L 165.796875 68.386719 Z M 165.796875 63.859375 " fill-opacity="1" fill-rule="nonzero"/><path fill="#ffffff" d="M 173.761719 100.269531 L 173.761719 104.796875 L 204.628906 104.796875 L 204.628906 100.269531 C 204.628906 99.253906 204.53125 98.25 204.335938 97.257812 C 204.136719 96.261719 203.84375 95.296875 203.457031 94.363281 C 203.066406 93.425781 202.59375 92.535156 202.03125 91.695312 C 201.464844 90.851562 200.828125 90.070312 200.109375 89.355469 C 199.394531 88.636719 198.613281 88 197.769531 87.433594 C 196.929688 86.871094 196.039062 86.398438 195.101562 86.007812 C 194.167969 85.621094 193.203125 85.328125 192.207031 85.128906 C 191.214844 84.933594 190.210938 84.835938 189.195312 84.835938 C 188.183594 84.835938 187.179688 84.933594 186.183594 85.128906 C 185.191406 85.328125 184.226562 85.621094 183.289062 86.007812 C 182.355469 86.398438 181.464844 86.871094 180.621094 87.433594 C 179.777344 88 179 88.636719 178.28125 89.355469 C 177.566406 90.070312 176.925781 90.851562 176.363281 91.695312 C 175.800781 92.535156 175.324219 93.425781 174.9375 94.363281 C 174.550781 95.296875 174.257812 96.261719 174.058594 97.257812 C 173.859375 98.25 173.761719 99.253906 173.761719 100.269531 Z M 173.761719 100.269531 " fill-opacity="1" fill-rule="nonzero"/><path fill="#ffffff" d="M 165.796875 100.269531 C 165.796875 99.5 165.835938 98.738281 165.910156 97.972656 C 165.984375 97.210938 166.097656 96.453125 166.246094 95.703125 C 166.394531 94.949219 166.578125 94.207031 166.800781 93.472656 C 167.023438 92.738281 167.28125 92.019531 167.574219 91.308594 C 167.867188 90.601562 168.195312 89.910156 168.554688 89.230469 C 168.917969 88.554688 169.308594 87.898438 169.734375 87.261719 C 170.160156 86.625 170.617188 86.007812 171.101562 85.414062 C 171.589844 84.824219 172.105469 84.253906 172.644531 83.714844 C 173.1875 83.171875 173.753906 82.65625 174.347656 82.167969 C 174.941406 81.683594 175.554688 81.226562 176.191406 80.800781 C 176.828125 80.375 177.484375 79.980469 178.160156 79.621094 C 178.839844 79.257812 179.53125 78.929688 180.238281 78.636719 C 180.945312 78.34375 181.667969 78.085938 182.402344 77.863281 C 183.136719 77.640625 183.878906 77.453125 184.628906 77.304688 C 185.382812 77.15625 186.140625 77.042969 186.902344 76.964844 C 187.664062 76.890625 188.429688 76.855469 189.195312 76.855469 C 189.964844 76.855469 190.726562 76.890625 191.492188 76.964844 C 192.253906 77.042969 193.011719 77.15625 193.761719 77.304688 C 194.515625 77.453125 195.257812 77.640625 195.992188 77.863281 C 196.726562 78.085938 197.445312 78.34375 198.152344 78.636719 C 198.863281 78.929688 199.554688 79.257812 200.230469 79.621094 C 200.90625 79.980469 201.5625 80.375 202.199219 80.800781 C 202.839844 81.226562 203.453125 81.683594 204.046875 82.167969 C 204.636719 82.65625 205.207031 83.171875 205.746094 83.714844 C 206.289062 84.253906 206.804688 84.824219 207.289062 85.414062 C 207.773438 86.007812 208.230469 86.625 208.65625 87.261719 C 209.082031 87.898438 209.476562 88.554688 209.835938 89.230469 C 210.199219 89.910156 210.523438 90.601562 210.816406 91.308594 C 211.109375 92.019531 211.367188 92.738281 211.589844 93.472656 C 211.8125 94.207031 212 94.949219 212.148438 95.703125 C 212.296875 96.453125 212.410156 97.210938 212.484375 97.972656 C 212.558594 98.738281 212.59375 99.5 212.59375 100.269531 L 212.59375 104.796875 L 219.058594 104.796875 L 219.058594 76.351562 L 157.140625 76.351562 L 157.140625 104.796875 L 165.796875 104.796875 Z M 165.796875 100.269531 " fill-opacity="1" fill-rule="nonzero"/><path fill="#ffffff" d="M 173.761719 63.859375 L 173.761719 68.386719 L 204.628906 68.386719 L 204.628906 63.859375 C 204.628906 62.847656 204.53125 61.84375 204.335938 60.851562 C 204.136719 59.855469 203.84375 58.890625 203.457031 57.953125 C 203.066406 57.019531 202.59375 56.128906 202.03125 55.285156 C 201.464844 54.445312 200.828125 53.664062 200.109375 52.945312 C 199.394531 52.230469 198.613281 51.589844 197.769531 51.027344 C 196.929688 50.464844 196.039062 49.988281 195.101562 49.601562 C 194.167969 49.214844 193.203125 48.921875 192.207031 48.722656 C 191.214844 48.527344 190.210938 48.425781 189.195312 48.425781 C 188.183594 48.425781 187.179688 48.527344 186.183594 48.722656 C 185.191406 48.921875 184.226562 49.214844 183.289062 49.601562 C 182.355469 49.988281 181.464844 50.464844 180.621094 51.027344 C 179.777344 51.589844 179 52.230469 178.28125 52.945312 C 177.566406 53.664062 176.925781 54.445312 176.363281 55.285156 C 175.800781 56.128906 175.324219 57.019531 174.9375 57.953125 C 174.550781 58.890625 174.257812 59.855469 174.058594 60.851562 C 173.859375 61.84375 173.761719 62.847656 173.761719 63.859375 Z M 173.761719 63.859375 " fill-opacity="1" fill-rule="nonzero"/><path fill="#ffffff" d="M 165.796875 136.675781 C 165.796875 135.910156 165.835938 135.144531 165.910156 134.382812 C 165.984375 133.617188 166.097656 132.859375 166.246094 132.109375 C 166.394531 131.355469 166.578125 130.613281 166.800781 129.878906 C 167.023438 129.144531 167.28125 128.425781 167.574219 127.71875 C 167.867188 127.007812 168.195312 126.316406 168.554688 125.640625 C 168.917969 124.964844 169.308594 124.304688 169.734375 123.667969 C 170.160156 123.03125 170.617188 122.414062 171.101562 121.824219 C 171.589844 121.230469 172.105469 120.664062 172.644531 120.121094 C 173.1875 119.578125 173.753906 119.0625 174.347656 118.578125 C 174.941406 118.089844 175.554688 117.632812 176.191406 117.207031 C 176.828125 116.78125 177.484375 116.386719 178.160156 116.027344 C 178.839844 115.664062 179.53125 115.335938 180.238281 115.042969 C 180.945312 114.75 181.667969 114.492188 182.402344 114.269531 C 183.136719 114.046875 183.878906 113.859375 184.628906 113.710938 C 185.382812 113.5625 186.140625 113.449219 186.902344 113.375 C 187.664062 113.300781 188.429688 113.261719 189.195312 113.261719 C 189.964844 113.261719 190.726562 113.300781 191.492188 113.375 C 192.253906 113.449219 193.011719 113.5625 193.761719 113.710938 C 194.515625 113.859375 195.257812 114.046875 195.992188 114.269531 C 196.726562 114.492188 197.445312 114.75 198.152344 115.042969 C 198.863281 115.335938 199.554688 115.664062 200.230469 116.027344 C 200.90625 116.386719 201.5625 116.78125 202.199219 117.207031 C 202.839844 117.632812 203.453125 118.089844 204.046875 118.578125 C 204.636719 119.0625 205.207031 119.578125 205.746094 120.121094 C 206.289062 120.664062 206.804688 121.230469 207.289062 121.824219 C 207.773438 122.414062 208.230469 123.03125 208.65625 123.667969 C 209.082031 124.304688 209.476562 124.964844 209.835938 125.640625 C 210.199219 126.316406 210.523438 127.007812 210.816406 127.71875 C 211.109375 128.425781 211.367188 129.144531 211.589844 129.878906 C 211.8125 130.613281 212 131.355469 212.148438 132.109375 C 212.296875 132.859375 212.410156 133.617188 212.484375 134.382812 C 212.558594 135.144531 212.59375 135.910156 212.59375 136.675781 L 212.59375 141.203125 L 219.058594 141.203125 L 219.058594 112.757812 L 157.140625 112.757812 L 157.140625 141.203125 L 165.796875 141.203125 Z M 165.796875 136.675781 " fill-opacity="1" fill-rule="nonzero"/><path fill="#ffffff" d="M 173.761719 136.675781 L 173.761719 141.203125 L 204.628906 141.203125 L 204.628906 136.675781 C 204.628906 135.664062 204.53125 134.660156 204.335938 133.664062 C 204.136719 132.671875 203.84375 131.707031 203.457031 130.769531 C 203.066406 129.832031 202.59375 128.945312 202.03125 128.101562 C 201.464844 127.257812 200.828125 126.480469 200.109375 125.761719 C 199.394531 125.046875 198.613281 124.40625 197.769531 123.84375 C 196.929688 123.28125 196.039062 122.804688 195.101562 122.417969 C 194.167969 122.027344 193.203125 121.734375 192.207031 121.539062 C 191.214844 121.339844 190.210938 121.242188 189.195312 121.242188 C 188.183594 121.242188 187.179688 121.339844 186.183594 121.539062 C 185.191406 121.734375 184.226562 122.027344 183.289062 122.417969 C 182.355469 122.804688 181.464844 123.28125 180.621094 123.84375 C 179.777344 124.40625 179 125.046875 178.28125 125.761719 C 177.566406 126.480469 176.925781 127.257812 176.363281 128.101562 C 175.800781 128.945312 175.324219 129.832031 174.9375 130.769531 C 174.550781 131.707031 174.257812 132.671875 174.058594 133.664062 C 173.859375 134.660156 173.761719 135.664062 173.761719 136.675781 Z M 173.761719 136.675781 " fill-opacity="1" fill-rule="nonzero"/><path fill="#ffffff" d="M 173.761719 173.085938 L 173.761719 177.609375 L 204.628906 177.609375 L 204.628906 173.085938 C 204.628906 172.070312 204.53125 171.066406 204.335938 170.074219 C 204.136719 169.078125 203.84375 168.113281 203.457031 167.179688 C 203.066406 166.242188 202.59375 165.351562 202.03125 164.511719 C 201.464844 163.667969 200.828125 162.886719 200.109375 162.171875 C 199.394531 161.453125 198.613281 160.816406 197.769531 160.253906 C 196.929688 159.6875 196.039062 159.214844 195.101562 158.824219 C 194.167969 158.4375 193.203125 158.144531 192.207031 157.949219 C 191.214844 157.75 190.210938 157.652344 189.195312 157.652344 C 188.183594 157.652344 187.179688 157.75 186.183594 157.949219 C 185.191406 158.144531 184.226562 158.4375 183.289062 158.824219 C 182.355469 159.214844 181.464844 159.6875 180.621094 160.253906 C 179.777344 160.816406 179 161.453125 178.28125 162.171875 C 177.566406 162.886719 176.925781 163.667969 176.363281 164.511719 C 175.800781 165.351562 175.324219 166.242188 174.9375 167.179688 C 174.550781 168.113281 174.257812 169.078125 174.058594 170.074219 C 173.859375 171.066406 173.761719 172.070312 173.761719 173.085938 Z M 173.761719 173.085938 " fill-opacity="1" fill-rule="nonzero"/><path fill="#ffffff" d="M 165.796875 214.386719 C 165.796875 213.617188 165.835938 212.851562 165.910156 212.089844 C 165.984375 211.328125 166.097656 210.570312 166.246094 209.816406 C 166.394531 209.066406 166.578125 208.324219 166.800781 207.589844 C 167.023438 206.855469 167.28125 206.132812 167.574219 205.425781 C 167.867188 204.71875 168.195312 204.023438 168.554688 203.347656 C 168.917969 202.671875 169.308594 202.015625 169.734375 201.378906 C 170.160156 200.738281 170.617188 200.125 171.101562 199.53125 C 171.589844 198.9375 172.105469 198.371094 172.644531 197.828125 C 173.1875 197.285156 173.753906 196.773438 174.347656 196.285156 C 174.941406 195.800781 175.554688 195.34375 176.191406 194.917969 C 176.828125 194.492188 177.484375 194.097656 178.160156 193.734375 C 178.839844 193.375 179.53125 193.046875 180.238281 192.753906 C 180.945312 192.460938 181.667969 192.203125 182.402344 191.980469 C 183.136719 191.757812 183.878906 191.570312 184.628906 191.421875 C 185.382812 191.269531 186.140625 191.160156 186.902344 191.082031 C 187.664062 191.007812 188.429688 190.96875 189.195312 190.96875 C 189.964844 190.96875 190.726562 191.007812 191.492188 191.082031 C 192.253906 191.160156 193.011719 191.269531 193.761719 191.421875 C 194.515625 191.570312 195.257812 191.757812 195.992188 191.980469 C 196.726562 192.203125 197.445312 192.460938 198.152344 192.753906 C 198.863281 193.046875 199.554688 193.375 200.230469 193.734375 C 200.90625 194.097656 201.5625 194.492188 202.199219 194.917969 C 202.839844 195.34375 203.453125 195.800781 204.046875 196.285156 C 204.636719 196.773438 205.207031 197.285156 205.746094 197.828125 C 206.289062 198.371094 206.804688 198.9375 207.289062 199.53125 C 207.773438 200.125 208.230469 200.738281 208.65625 201.378906 C 209.082031 202.015625 209.476562 202.671875 209.835938 203.347656 C 210.199219 204.023438 210.523438 204.71875 210.816406 205.425781 C 211.109375 206.132812 211.367188 206.855469 211.589844 207.589844 C 211.8125 208.324219 212 209.066406 212.148438 209.816406 C 212.296875 210.570312 212.410156 211.328125 212.484375 212.089844 C 212.558594 212.851562 212.59375 213.617188 212.59375 214.386719 L 212.59375 218.910156 L 219.058594 218.910156 L 219.058594 185.574219 L 157.140625 185.574219 L 157.140625 218.910156 L 165.796875 218.910156 Z M 165.796875 214.386719 " fill-opacity="1" fill-rule="nonzero"/><path fill="#ffffff" d="M 165.796875 173.085938 C 165.796875 172.320312 165.835938 171.554688 165.910156 170.789062 C 165.984375 170.027344 166.097656 169.269531 166.246094 168.519531 C 166.394531 167.765625 166.578125 167.023438 166.800781 166.289062 C 167.023438 165.554688 167.28125 164.835938 167.574219 164.125 C 167.867188 163.417969 168.195312 162.726562 168.554688 162.050781 C 168.917969 161.371094 169.308594 160.714844 169.734375 160.078125 C 170.160156 159.441406 170.617188 158.824219 171.101562 158.230469 C 171.589844 157.640625 172.105469 157.070312 172.644531 156.53125 C 173.1875 155.988281 173.753906 155.472656 174.347656 154.984375 C 174.941406 154.5 175.554688 154.042969 176.191406 153.617188 C 176.828125 153.191406 177.484375 152.796875 178.160156 152.4375 C 178.839844 152.074219 179.53125 151.746094 180.238281 151.453125 C 180.945312 151.160156 181.667969 150.902344 182.402344 150.679688 C 183.136719 150.457031 183.878906 150.269531 184.628906 150.121094 C 185.382812 149.972656 186.140625 149.859375 186.902344 149.785156 C 187.664062 149.707031 188.429688 149.671875 189.195312 149.671875 C 189.964844 149.671875 190.726562 149.707031 191.492188 149.785156 C 192.253906 149.859375 193.011719 149.972656 193.761719 150.121094 C 194.515625 150.269531 195.257812 150.457031 195.992188 150.679688 C 196.726562 150.902344 197.445312 151.160156 198.152344 151.453125 C 198.863281 151.746094 199.554688 152.074219 200.230469 152.4375 C 200.90625 152.796875 201.5625 153.191406 202.199219 153.617188 C 202.839844 154.042969 203.453125 154.5 204.046875 154.984375 C 204.636719 155.472656 205.207031 155.988281 205.746094 156.53125 C 206.289062 157.070312 206.804688 157.640625 207.289062 158.230469 C 207.773438 158.824219 208.230469 159.441406 208.65625 160.078125 C 209.082031 160.714844 209.476562 161.371094 209.835938 162.050781 C 210.199219 162.726562 210.523438 163.417969 210.816406 164.125 C 211.109375 164.835938 211.367188 165.554688 211.589844 166.289062 C 211.8125 167.023438 212 167.765625 212.148438 168.519531 C 212.296875 169.269531 212.410156 170.027344 212.484375 170.789062 C 212.558594 171.554688 212.59375 172.320312 212.59375 173.085938 L 212.59375 177.609375 L 219.058594 177.609375 L 219.058594 149.167969 L 157.140625 149.167969 L 157.140625 177.609375 L 165.796875 177.609375 Z M 165.796875 173.085938 " fill-opacity="1" fill-rule="nonzero"/><path fill="#ffffff" d="M 270.808594 41.792969 C 270.828125 41.136719 270.683594 40.519531 270.371094 39.945312 L 227.019531 39.945312 L 227.019531 68.386719 L 270.808594 68.386719 Z M 270.808594 41.792969 " fill-opacity="1" fill-rule="nonzero"/><path fill="#ffffff" d="M 227.019531 13.480469 L 247.113281 13.480469 L 247.113281 31.980469 L 227.019531 31.980469 Z M 227.019531 13.480469 " fill-opacity="1" fill-rule="nonzero"/><path fill="#ffffff" d="M 293.527344 114.609375 C 293.527344 113.476562 292.890625 112.757812 292.554688 112.757812 L 227.019531 112.757812 L 227.019531 141.203125 L 293.527344 141.203125 Z M 293.527344 114.609375 " fill-opacity="1" fill-rule="nonzero"/><path fill="#ffffff" d="M 282.285156 78.199219 C 282.328125 77.503906 282.121094 76.886719 281.671875 76.351562 L 227.019531 76.351562 L 227.019531 104.796875 L 282.285156 104.796875 Z M 282.285156 78.199219 " fill-opacity="1" fill-rule="nonzero"/><path fill="#ffffff" d="M 261.492188 3.792969 C 261.492188 3.367188 261.410156 2.960938 261.246094 2.566406 C 261.082031 2.171875 260.851562 1.828125 260.550781 1.527344 C 260.25 1.226562 259.902344 0.992188 259.511719 0.832031 C 259.117188 0.667969 258.707031 0.585938 258.285156 0.585938 C 257.859375 0.585938 257.449219 0.667969 257.054688 0.832031 C 256.664062 0.992188 256.316406 1.226562 256.015625 1.527344 C 255.714844 1.828125 255.484375 2.171875 255.320312 2.566406 C 255.15625 2.960938 255.078125 3.367188 255.078125 3.792969 L 255.078125 31.980469 L 261.492188 31.980469 Z M 261.492188 3.792969 " fill-opacity="1" fill-rule="nonzero"/><path fill="#ffffff" d="M 207.964844 13.480469 L 219.058594 13.480469 L 219.058594 31.980469 L 207.964844 31.980469 Z M 207.964844 13.480469 " fill-opacity="1" fill-rule="nonzero"/><path fill="#ffffff" d="M 301.929688 151.015625 C 301.929688 150.03125 301.296875 149.167969 300.574219 149.167969 L 227.019531 149.167969 L 227.019531 177.609375 L 301.929688 177.609375 Z M 301.929688 151.015625 " fill-opacity="1" fill-rule="nonzero"/><path fill="#ffffff" d="M 183.914062 13.894531 C 183.914062 13.632812 183.941406 13.375 183.992188 13.117188 C 184.042969 12.863281 184.117188 12.613281 184.21875 12.371094 C 184.320312 12.128906 184.441406 11.902344 184.585938 11.683594 C 184.730469 11.464844 184.898438 11.265625 185.082031 11.078125 C 185.265625 10.894531 185.46875 10.730469 185.683594 10.585938 C 185.902344 10.4375 186.132812 10.316406 186.375 10.214844 C 186.613281 10.117188 186.863281 10.039062 187.121094 9.988281 C 187.378906 9.9375 187.636719 9.914062 187.898438 9.914062 C 188.160156 9.914062 188.417969 9.9375 188.675781 9.988281 C 188.929688 10.039062 189.179688 10.117188 189.421875 10.214844 C 189.664062 10.316406 189.890625 10.4375 190.109375 10.585938 C 190.328125 10.730469 190.527344 10.894531 190.714844 11.078125 C 190.898438 11.265625 191.0625 11.464844 191.207031 11.683594 C 191.355469 11.902344 191.476562 12.128906 191.578125 12.371094 C 191.675781 12.613281 191.75 12.863281 191.804688 13.117188 C 191.855469 13.375 191.878906 13.632812 191.878906 13.894531 L 191.878906 31.980469 L 200.003906 31.980469 L 200.003906 13.453125 C 200.007812 12.617188 199.933594 11.785156 199.777344 10.964844 C 199.617188 10.140625 199.382812 9.34375 199.066406 8.566406 C 198.75 7.789062 198.359375 7.054688 197.898438 6.355469 C 197.4375 5.65625 196.910156 5.011719 196.320312 4.417969 C 195.730469 3.820312 195.089844 3.289062 194.394531 2.824219 C 193.699219 2.355469 192.964844 1.960938 192.195312 1.640625 C 191.421875 1.316406 190.625 1.074219 189.800781 0.910156 C 188.980469 0.746094 188.152344 0.664062 187.316406 0.664062 C 186.476562 0.664062 185.648438 0.746094 184.828125 0.910156 C 184.007812 1.074219 183.210938 1.316406 182.4375 1.640625 C 181.664062 1.960938 180.929688 2.355469 180.234375 2.824219 C 179.539062 3.289062 178.898438 3.820312 178.308594 4.417969 C 177.71875 5.011719 177.191406 5.65625 176.730469 6.355469 C 176.269531 7.054688 175.878906 7.789062 175.5625 8.566406 C 175.25 9.34375 175.011719 10.140625 174.855469 10.964844 C 174.695312 11.785156 174.621094 12.617188 174.628906 13.453125 L 174.628906 31.980469 L 183.917969 31.980469 Z M 183.914062 13.894531 " fill-opacity="1" fill-rule="nonzero"/><path fill="#ffffff" d="M 157.140625 13.480469 L 166.660156 13.480469 L 166.660156 31.980469 L 157.140625 31.980469 Z M 157.140625 13.480469 " fill-opacity="1" fill-rule="nonzero"/><path fill="#ffffff" d="M 312.832031 187.421875 C 312.832031 187.175781 312.785156 186.941406 312.691406 186.714844 C 312.59375 186.488281 312.460938 186.289062 312.289062 186.113281 C 312.113281 185.941406 311.914062 185.808594 311.6875 185.714844 C 311.460938 185.621094 311.226562 185.574219 310.980469 185.574219 L 227.019531 185.574219 L 227.019531 218.910156 L 312.832031 218.910156 Z M 312.832031 187.421875 " fill-opacity="1" fill-rule="nonzero"/><path fill="#ffffff" d="M 173.761719 214.386719 L 173.761719 218.910156 L 204.628906 218.910156 L 204.628906 214.386719 C 204.628906 213.371094 204.53125 212.367188 204.335938 211.375 C 204.136719 210.378906 203.84375 209.414062 203.457031 208.476562 C 203.066406 207.542969 202.59375 206.652344 202.03125 205.808594 C 201.464844 204.96875 200.828125 204.1875 200.109375 203.472656 C 199.394531 202.753906 198.613281 202.113281 197.769531 201.550781 C 196.929688 200.988281 196.039062 200.511719 195.101562 200.125 C 194.167969 199.738281 193.203125 199.445312 192.207031 199.246094 C 191.214844 199.050781 190.210938 198.949219 189.195312 198.949219 C 188.183594 198.949219 187.179688 199.050781 186.183594 199.246094 C 185.191406 199.445312 184.226562 199.738281 183.289062 200.125 C 182.355469 200.511719 181.464844 200.988281 180.621094 201.550781 C 179.777344 202.113281 179 202.753906 178.28125 203.472656 C 177.566406 204.1875 176.925781 204.96875 176.363281 205.808594 C 175.800781 206.652344 175.324219 207.542969 174.9375 208.476562 C 174.550781 209.414062 174.257812 210.378906 174.058594 211.375 C 173.859375 212.367188 173.761719 213.371094 173.761719 214.386719 Z M 173.761719 214.386719 " fill-opacity="1" fill-rule="nonzero"/><path fill="#ffffff" d="M 187.871094 289.921875 C 187.234375 289.921875 186.597656 289.957031 185.964844 290.019531 C 185.332031 290.082031 184.703125 290.175781 184.078125 290.300781 C 183.453125 290.425781 182.835938 290.582031 182.226562 290.765625 C 181.617188 290.953125 181.019531 291.167969 180.433594 291.410156 C 179.84375 291.65625 179.269531 291.925781 178.707031 292.226562 C 178.148438 292.527344 177.601562 292.855469 177.074219 293.207031 C 176.542969 293.5625 176.035156 293.941406 175.542969 294.34375 C 175.050781 294.75 174.578125 295.175781 174.128906 295.628906 C 173.679688 296.078125 173.25 296.546875 172.847656 297.039062 C 172.445312 297.53125 172.066406 298.042969 171.710938 298.574219 C 171.359375 299.101562 171.03125 299.648438 170.730469 300.207031 C 170.429688 300.769531 170.160156 301.34375 169.914062 301.933594 C 169.671875 302.519531 169.457031 303.121094 169.269531 303.726562 C 169.085938 304.335938 168.929688 304.953125 168.808594 305.578125 C 168.683594 306.203125 168.589844 306.832031 168.527344 307.464844 C 168.460938 308.097656 168.429688 308.734375 168.429688 309.371094 L 168.429688 355.953125 L 207.308594 355.953125 L 207.308594 309.371094 C 207.308594 308.734375 207.277344 308.097656 207.214844 307.464844 C 207.152344 306.832031 207.058594 306.203125 206.933594 305.578125 C 206.808594 304.953125 206.652344 304.335938 206.46875 303.726562 C 206.285156 303.121094 206.070312 302.519531 205.824219 301.933594 C 205.582031 301.34375 205.308594 300.769531 205.007812 300.207031 C 204.707031 299.648438 204.382812 299.101562 204.027344 298.574219 C 203.675781 298.042969 203.296875 297.53125 202.890625 297.039062 C 202.488281 296.546875 202.0625 296.078125 201.609375 295.625 C 201.160156 295.175781 200.691406 294.75 200.199219 294.34375 C 199.707031 293.941406 199.195312 293.5625 198.667969 293.207031 C 198.136719 292.855469 197.589844 292.527344 197.03125 292.226562 C 196.46875 291.925781 195.894531 291.652344 195.308594 291.410156 C 194.71875 291.167969 194.121094 290.953125 193.511719 290.765625 C 192.902344 290.582031 192.285156 290.425781 191.660156 290.300781 C 191.035156 290.175781 190.40625 290.082031 189.773438 290.019531 C 189.140625 289.957031 188.507812 289.921875 187.871094 289.921875 Z M 187.871094 289.921875 " fill-opacity="1" fill-rule="nonzero"/><path fill="#ffffff" d="M 118.144531 249.628906 L 132.019531 249.628906 L 132.019531 355.953125 L 118.144531 355.953125 Z M 118.144531 249.628906 " fill-opacity="1" fill-rule="nonzero"/><path fill="#ffffff" d="M 263.730469 249.628906 L 301.625 249.628906 L 301.625 355.953125 L 263.730469 355.953125 Z M 263.730469 249.628906 " fill-opacity="1" fill-rule="nonzero"/><path fill="#ffffff" d="M 241.890625 249.628906 L 255.765625 249.628906 L 255.765625 355.953125 L 241.890625 355.953125 Z M 241.890625 249.628906 " fill-opacity="1" fill-rule="nonzero"/><path fill="#ffffff" d="M 233.929688 355.953125 L 233.929688 249.628906 L 139.984375 249.628906 L 139.984375 355.953125 L 160.464844 355.953125 L 160.464844 309.371094 C 160.460938 308.46875 160.5 307.570312 160.585938 306.675781 C 160.667969 305.777344 160.796875 304.886719 160.96875 304.003906 C 161.140625 303.117188 161.351562 302.246094 161.609375 301.382812 C 161.867188 300.519531 162.167969 299.671875 162.507812 298.835938 C 162.851562 298.003906 163.230469 297.191406 163.652344 296.394531 C 164.074219 295.597656 164.535156 294.824219 165.03125 294.074219 C 165.53125 293.324219 166.0625 292.601562 166.632812 291.902344 C 167.203125 291.203125 167.804688 290.535156 168.441406 289.898438 C 169.074219 289.257812 169.738281 288.652344 170.433594 288.078125 C 171.128906 287.507812 171.851562 286.96875 172.597656 286.46875 C 173.347656 285.964844 174.117188 285.5 174.910156 285.074219 C 175.703125 284.648438 176.515625 284.265625 177.347656 283.917969 C 178.179688 283.574219 179.027344 283.269531 179.886719 283.007812 C 180.75 282.742188 181.621094 282.523438 182.503906 282.347656 C 183.390625 282.171875 184.277344 282.039062 185.175781 281.949219 C 186.070312 281.863281 186.96875 281.816406 187.871094 281.816406 C 188.769531 281.816406 189.667969 281.863281 190.566406 281.949219 C 191.460938 282.039062 192.351562 282.171875 193.234375 282.347656 C 194.117188 282.523438 194.988281 282.742188 195.851562 283.007812 C 196.714844 283.269531 197.558594 283.574219 198.390625 283.917969 C 199.222656 284.265625 200.035156 284.648438 200.828125 285.074219 C 201.621094 285.5 202.394531 285.964844 203.140625 286.46875 C 203.890625 286.96875 204.609375 287.507812 205.304688 288.078125 C 206 288.652344 206.664062 289.257812 207.300781 289.898438 C 207.933594 290.535156 208.535156 291.203125 209.105469 291.902344 C 209.675781 292.601562 210.210938 293.324219 210.707031 294.074219 C 211.203125 294.824219 211.664062 295.597656 212.085938 296.394531 C 212.507812 297.191406 212.890625 298.003906 213.230469 298.835938 C 213.570312 299.671875 213.871094 300.519531 214.128906 301.382812 C 214.386719 302.246094 214.601562 303.117188 214.773438 304.003906 C 214.945312 304.886719 215.070312 305.777344 215.15625 306.675781 C 215.238281 307.570312 215.277344 308.46875 215.273438 309.371094 L 215.273438 355.953125 Z M 233.929688 355.953125 " fill-opacity="1" fill-rule="nonzero"/><path fill="#ffffff" d="M 128.96875 13.480469 L 149.179688 13.480469 L 149.179688 31.980469 L 128.96875 31.980469 Z M 128.96875 13.480469 " fill-opacity="1" fill-rule="nonzero"/><path fill="#ffffff" d="M 52.632812 249.628906 L 66.507812 249.628906 L 66.507812 355.953125 L 52.632812 355.953125 Z M 52.632812 249.628906 " fill-opacity="1" fill-rule="nonzero"/><g clip-path="url(#36377dc989)"><path fill="#ffffff" d="M 33.550781 363.914062 L 341.53125 363.914062 L 341.53125 374.894531 L 33.550781 374.894531 Z M 33.550781 363.914062 " fill-opacity="1" fill-rule="nonzero"/></g><path fill="#ffffff" d="M 110.183594 355.953125 L 110.183594 249.628906 L 74.46875 249.628906 L 74.46875 355.953125 Z M 81.898438 262.363281 C 81.898438 262.101562 81.921875 261.839844 81.972656 261.585938 C 82.023438 261.328125 82.101562 261.078125 82.199219 260.839844 C 82.300781 260.597656 82.421875 260.367188 82.570312 260.148438 C 82.714844 259.933594 82.878906 259.730469 83.0625 259.546875 C 83.25 259.359375 83.449219 259.195312 83.667969 259.050781 C 83.886719 258.90625 84.113281 258.78125 84.355469 258.683594 C 84.597656 258.582031 84.847656 258.507812 85.101562 258.457031 C 85.359375 258.40625 85.617188 258.378906 85.878906 258.378906 C 86.140625 258.378906 86.398438 258.40625 86.65625 258.457031 C 86.914062 258.507812 87.164062 258.582031 87.402344 258.683594 C 87.644531 258.78125 87.875 258.90625 88.09375 259.050781 C 88.308594 259.195312 88.511719 259.359375 88.695312 259.546875 C 88.878906 259.730469 89.046875 259.933594 89.191406 260.148438 C 89.335938 260.367188 89.457031 260.597656 89.558594 260.839844 C 89.660156 261.078125 89.734375 261.328125 89.785156 261.585938 C 89.835938 261.839844 89.863281 262.101562 89.863281 262.363281 L 89.863281 270.023438 C 89.863281 270.285156 89.835938 270.542969 89.785156 270.800781 C 89.734375 271.054688 89.660156 271.304688 89.558594 271.546875 C 89.457031 271.789062 89.335938 272.015625 89.191406 272.234375 C 89.046875 272.453125 88.878906 272.652344 88.695312 272.839844 C 88.511719 273.023438 88.308594 273.1875 88.09375 273.332031 C 87.875 273.480469 87.644531 273.601562 87.402344 273.703125 C 87.164062 273.800781 86.914062 273.875 86.65625 273.929688 C 86.398438 273.980469 86.140625 274.003906 85.878906 274.003906 C 85.617188 274.003906 85.359375 273.980469 85.101562 273.929688 C 84.847656 273.875 84.597656 273.800781 84.355469 273.703125 C 84.113281 273.601562 83.886719 273.480469 83.667969 273.332031 C 83.449219 273.1875 83.25 273.023438 83.0625 272.839844 C 82.878906 272.652344 82.714844 272.453125 82.570312 272.234375 C 82.421875 272.015625 82.300781 271.789062 82.199219 271.546875 C 82.101562 271.304688 82.023438 271.054688 81.972656 270.800781 C 81.921875 270.542969 81.898438 270.285156 81.898438 270.023438 Z M 81.898438 287.824219 C 81.898438 287.5625 81.921875 287.300781 81.972656 287.046875 C 82.023438 286.789062 82.101562 286.539062 82.199219 286.300781 C 82.300781 286.058594 82.421875 285.828125 82.570312 285.609375 C 82.714844 285.394531 82.878906 285.191406 83.0625 285.007812 C 83.25 284.820312 83.449219 284.65625 83.667969 284.511719 C 83.886719 284.367188 84.113281 284.242188 84.355469 284.144531 C 84.597656 284.042969 84.847656 283.96875 85.101562 283.917969 C 85.359375 283.867188 85.617188 283.839844 85.878906 283.839844 C 86.140625 283.839844 86.398438 283.867188 86.65625 283.917969 C 86.914062 283.96875 87.164062 284.042969 87.402344 284.144531 C 87.644531 284.242188 87.875 284.367188 88.09375 284.511719 C 88.308594 284.65625 88.511719 284.820312 88.695312 285.007812 C 88.878906 285.191406 89.046875 285.394531 89.191406 285.609375 C 89.335938 285.828125 89.457031 286.058594 89.558594 286.300781 C 89.660156 286.539062 89.734375 286.789062 89.785156 287.046875 C 89.835938 287.300781 89.863281 287.5625 89.863281 287.824219 L 89.863281 325.195312 C 89.863281 325.457031 89.835938 325.714844 89.785156 325.972656 C 89.734375 326.226562 89.660156 326.476562 89.558594 326.71875 C 89.457031 326.960938 89.335938 327.191406 89.191406 327.40625 C 89.046875 327.625 88.878906 327.824219 88.695312 328.011719 C 88.511719 328.195312 88.308594 328.359375 88.09375 328.503906 C 87.875 328.652344 87.644531 328.773438 87.402344 328.875 C 87.164062 328.972656 86.914062 329.050781 86.65625 329.101562 C 86.398438 329.152344 86.140625 329.175781 85.878906 329.175781 C 85.617188 329.175781 85.359375 329.152344 85.101562 329.101562 C 84.847656 329.050781 84.597656 328.972656 84.355469 328.875 C 84.113281 328.773438 83.886719 328.652344 83.667969 328.503906 C 83.449219 328.359375 83.25 328.195312 83.0625 328.011719 C 82.878906 327.824219 82.714844 327.625 82.570312 327.40625 C 82.421875 327.191406 82.300781 326.960938 82.199219 326.71875 C 82.101562 326.476562 82.023438 326.226562 81.972656 325.972656 C 81.921875 325.714844 81.898438 325.457031 81.898438 325.195312 Z M 81.898438 287.824219 " fill-opacity="1" fill-rule="nonzero"/><path fill="#ffffff" d="M 309.589844 249.628906 L 323.460938 249.628906 L 323.460938 355.953125 L 309.589844 355.953125 Z M 309.589844 249.628906 " fill-opacity="1" fill-rule="nonzero"/><path fill="#ffffff" d="M 149.179688 112.757812 L 83.53125 112.757812 C 83.195312 112.757812 82.554688 113.476562 82.554688 114.609375 L 82.554688 141.203125 L 149.183594 141.203125 Z M 149.179688 112.757812 " fill-opacity="1" fill-rule="nonzero"/><path fill="#ffffff" d="M 149.179688 76.351562 L 94.40625 76.351562 C 93.957031 76.886719 93.753906 77.503906 93.792969 78.199219 L 93.792969 104.796875 L 149.179688 104.796875 Z M 149.179688 76.351562 " fill-opacity="1" fill-rule="nonzero"/><path fill="#ffffff" d="M 121.003906 3.792969 C 121.007812 3.363281 120.933594 2.949219 120.773438 2.550781 C 120.613281 2.152344 120.382812 1.800781 120.082031 1.492188 C 119.78125 1.1875 119.429688 0.949219 119.035156 0.785156 C 118.636719 0.617188 118.226562 0.535156 117.796875 0.535156 C 117.367188 0.535156 116.953125 0.617188 116.554688 0.785156 C 116.160156 0.949219 115.8125 1.1875 115.507812 1.492188 C 115.207031 1.800781 114.976562 2.152344 114.816406 2.550781 C 114.65625 2.949219 114.582031 3.363281 114.585938 3.792969 L 114.585938 31.980469 L 121.003906 31.980469 Z M 121.003906 3.792969 " fill-opacity="1" fill-rule="nonzero"/><path fill="#ffffff" d="M 149.179688 39.945312 L 105.707031 39.945312 C 105.398438 40.519531 105.253906 41.136719 105.273438 41.792969 L 105.273438 68.386719 L 149.179688 68.386719 Z M 149.179688 39.945312 " fill-opacity="1" fill-rule="nonzero"/><path fill="#ffffff" d="M 335.878906 241.355469 L 335.878906 234.265625 C 335.878906 233.78125 335.828125 233.300781 335.734375 232.824219 C 335.640625 232.347656 335.5 231.886719 335.3125 231.4375 C 335.128906 230.992188 334.898438 230.566406 334.628906 230.160156 C 334.359375 229.757812 334.054688 229.382812 333.710938 229.042969 C 333.367188 228.699219 332.996094 228.390625 332.59375 228.121094 C 332.1875 227.851562 331.761719 227.625 331.316406 227.4375 C 330.867188 227.253906 330.40625 227.113281 329.929688 227.015625 C 329.453125 226.921875 328.972656 226.875 328.488281 226.871094 L 47.589844 226.871094 C 47.105469 226.875 46.625 226.921875 46.148438 227.015625 C 45.675781 227.113281 45.210938 227.253906 44.765625 227.4375 C 44.316406 227.625 43.890625 227.851562 43.488281 228.121094 C 43.082031 228.390625 42.710938 228.699219 42.367188 229.042969 C 42.023438 229.382812 41.71875 229.757812 41.449219 230.160156 C 41.179688 230.566406 40.949219 230.992188 40.765625 231.4375 C 40.578125 231.886719 40.4375 232.347656 40.34375 232.824219 C 40.25 233.300781 40.199219 233.78125 40.199219 234.265625 L 40.199219 241.660156 L 335.570312 241.660156 C 335.65625 241.660156 335.726562 241.628906 335.785156 241.570312 C 335.847656 241.511719 335.878906 241.4375 335.878906 241.355469 Z M 335.878906 241.355469 " fill-opacity="1" fill-rule="nonzero"/><path fill="#ffffff" d="M 149.179688 185.574219 L 65.09375 185.574219 C 64.847656 185.574219 64.613281 185.621094 64.386719 185.714844 C 64.160156 185.808594 63.960938 185.945312 63.789062 186.117188 C 63.617188 186.289062 63.480469 186.492188 63.386719 186.714844 C 63.292969 186.941406 63.246094 187.179688 63.246094 187.421875 L 63.246094 218.910156 L 149.179688 218.910156 Z M 149.179688 185.574219 " fill-opacity="1" fill-rule="nonzero"/><path fill="#ffffff" d="M 149.179688 149.167969 L 75.503906 149.167969 C 74.789062 149.167969 74.152344 150.03125 74.152344 151.015625 L 74.152344 177.609375 L 149.179688 177.609375 Z M 149.179688 149.167969 " fill-opacity="1" fill-rule="nonzero"/></svg>