<svg xmlns="http://www.w3.org/2000/svg" xmlns:xlink="http://www.w3.org/1999/xlink" width="500" zoomAndPan="magnify" viewBox="0 0 375 374.999991" height="500" preserveAspectRatio="xMidYMid meet" version="1.0"><defs><clipPath id="f308059baa"><path d="M 0.382812 71.484375 L 374.582031 71.484375 L 374.582031 303.234375 L 0.382812 303.234375 Z M 0.382812 71.484375 " clip-rule="nonzero"/></clipPath></defs><g clip-path="url(#f308059baa)"><path fill="#ffffff" d="M 97.167969 243.066406 C 96.765625 242.355469 96.085938 241.921875 95.503906 241.421875 C 90.113281 236.824219 85.09375 231.878906 80.4375 226.523438 C 73.882812 218.988281 68.386719 210.738281 63.53125 202.0625 C 60.039062 195.824219 56.988281 189.347656 54.589844 182.59375 C 53.742188 180.199219 52.761719 177.851562 51.890625 175.46875 C 49.945312 170.15625 48.679688 164.652344 47.601562 159.117188 C 46.535156 153.652344 46.125 148.09375 46.324219 142.511719 C 46.335938 142.199219 46.414062 141.890625 46.464844 141.53125 C 47.390625 141.441406 47.691406 142.210938 48.136719 142.679688 C 49.515625 144.109375 50.820312 145.605469 52.160156 147.066406 C 54.492188 149.613281 57.355469 151.503906 60.164062 153.445312 C 66.121094 157.5625 72.402344 161.125 78.949219 164.226562 C 82.679688 166.003906 86.324219 167.949219 90.054688 169.71875 C 94.285156 171.726562 98.566406 173.617188 102.824219 175.566406 C 110.183594 178.9375 117.566406 182.269531 124.898438 185.699219 C 129.859375 188.023438 134.757812 190.492188 139.6875 192.894531 C 140.160156 193.121094 140.660156 193.3125 141.441406 193.644531 C 141.265625 193.007812 141.191406 192.644531 141.070312 192.300781 C 139.621094 188.242188 138.601562 184.082031 138.023438 179.820312 C 137.84375 178.484375 137.703125 177.132812 137.679688 175.789062 C 137.625 172.292969 137.699219 168.796875 137.625 165.296875 C 137.535156 160.964844 138.386719 156.761719 139.269531 152.5625 C 141.179688 143.453125 144.898438 135.054688 149.566406 127.046875 C 151.28125 124.101562 152.894531 121.085938 154.65625 118.160156 C 157.074219 114.144531 159.613281 110.207031 162.046875 106.203125 C 166.183594 99.40625 171.113281 93.160156 175.667969 86.65625 C 178.3125 82.886719 181.28125 79.347656 184.101562 75.703125 C 185.164062 74.332031 186.222656 72.953125 187.347656 71.488281 C 187.667969 71.742188 187.949219 71.886719 188.125 72.109375 C 191.230469 76.035156 194.378906 79.929688 197.414062 83.910156 C 199.917969 87.195312 202.269531 90.59375 204.71875 93.921875 C 208.820312 99.492188 212.464844 105.363281 216.203125 111.171875 C 218.433594 114.640625 220.414062 118.273438 222.480469 121.851562 C 224.421875 125.222656 226.4375 128.554688 228.214844 132.015625 C 232.003906 139.398438 234.851562 147.109375 236.375 155.316406 C 237.460938 161.152344 237.410156 167.003906 237.445312 172.882812 C 237.46875 176.960938 237.007812 180.980469 236.121094 184.9375 C 235.585938 187.335938 234.761719 189.667969 234.0625 192.023438 C 233.933594 192.457031 233.789062 192.882812 233.558594 193.621094 C 234.199219 193.394531 234.558594 193.308594 234.878906 193.152344 C 239.878906 190.714844 244.859375 188.242188 249.875 185.839844 C 253.3125 184.195312 256.792969 182.636719 260.257812 181.058594 C 265.386719 178.722656 270.507812 176.371094 275.65625 174.078125 C 283.78125 170.460938 291.726562 166.464844 299.671875 162.472656 C 306.859375 158.867188 313.71875 154.683594 320 149.65625 C 322.402344 147.734375 324.390625 145.304688 326.558594 143.097656 C 327.144531 142.5 327.550781 141.695312 328.394531 141.394531 C 328.542969 141.601562 328.707031 141.71875 328.710938 141.839844 C 328.753906 144.617188 328.929688 147.394531 328.554688 150.167969 C 328.316406 151.894531 328.1875 153.640625 327.972656 155.371094 C 327.121094 162.179688 325.394531 168.777344 323.207031 175.261719 C 321.074219 181.585938 318.550781 187.757812 315.726562 193.804688 C 310.695312 204.589844 304.339844 214.558594 296.917969 223.824219 C 293.246094 228.414062 289.257812 232.75 284.84375 236.667969 C 282.945312 238.351562 281.042969 240.035156 279.175781 241.761719 C 278.730469 242.171875 278.078125 242.425781 277.90625 243.242188 C 278.402344 243.242188 278.867188 243.328125 279.289062 243.226562 C 285.59375 241.777344 292.015625 241.382812 298.441406 240.980469 C 307.601562 240.40625 316.703125 241.148438 325.796875 242.105469 C 329.039062 242.449219 332.28125 242.765625 335.484375 243.316406 C 343.546875 244.710938 351.59375 246.261719 359.433594 248.632812 C 364.0625 250.027344 368.570312 251.839844 373.125 253.480469 C 373.628906 253.664062 374.09375 253.96875 374.511719 254.183594 C 374.769531 255.074219 374.222656 255.503906 373.777344 255.914062 C 371.960938 257.574219 370.179688 259.285156 368.25 260.816406 C 363.902344 264.28125 359.589844 267.816406 355.035156 270.996094 C 350.222656 274.359375 345.152344 277.351562 340.1875 280.492188 C 335.679688 283.335938 330.898438 285.679688 326.148438 288.074219 C 321.460938 290.425781 316.550781 292.273438 311.601562 294.003906 C 311.003906 294.210938 310.382812 294.375 309.800781 294.625 C 306.375 296.113281 302.824219 297.265625 299.253906 298.324219 C 295.910156 299.320312 292.542969 300.253906 289.128906 300.953125 C 285.402344 301.71875 281.617188 302.226562 277.847656 302.78125 C 275.964844 303.054688 274.058594 303.1875 272.15625 303.382812 C 271.46875 303.449219 270.769531 303.542969 270.15625 303.300781 C 269.960938 302.6875 270.371094 302.476562 270.605469 302.1875 C 271.410156 301.207031 272.339844 300.304688 273.007812 299.238281 C 275.796875 294.785156 275.964844 290.105469 273.859375 285.351562 C 273.179688 283.816406 271.984375 282.609375 270.613281 281.601562 C 270.117188 281.238281 269.625 280.863281 268.972656 280.367188 C 269.429688 280.0625 269.710938 279.808594 270.042969 279.667969 C 274.8125 277.613281 278.054688 274.035156 280.1875 269.40625 C 281.617188 266.300781 281.808594 262.96875 281.617188 259.609375 C 281.605469 259.3125 281.210938 258.851562 280.9375 258.804688 C 280.648438 258.757812 280.144531 259.046875 280.003906 259.324219 C 279.648438 260.023438 279.433594 260.796875 279.175781 261.542969 C 278.691406 262.96875 278.1875 264.386719 276.863281 265.558594 C 276.566406 264.972656 276.324219 264.4375 276.035156 263.929688 C 275.292969 262.613281 274.140625 262.058594 272.648438 262.21875 C 271.488281 262.34375 270.363281 262.792969 269.148438 262.332031 C 268.855469 262.214844 268.273438 262.625 267.9375 262.921875 C 266.679688 264.011719 265.429688 265.128906 264.242188 266.292969 C 262.59375 267.910156 260.605469 268.777344 258.386719 269.28125 C 256.789062 269.648438 255.386719 269.328125 254.109375 268.390625 C 253.339844 267.828125 252.609375 267.203125 251.929688 266.539062 C 248.054688 262.773438 244.175781 259.027344 241.011719 254.59375 C 238.179688 250.628906 234.648438 247.269531 231.082031 243.992188 C 229.203125 242.265625 228.152344 240.277344 227.726562 237.875 C 226.925781 233.339844 226.191406 228.796875 225.441406 224.25 C 225.261719 223.15625 225.089844 222.054688 224.988281 220.949219 C 224.617188 217.078125 224.316406 213.203125 223.910156 209.339844 C 223.679688 207.132812 223.453125 204.902344 222.9375 202.753906 C 222.308594 200.152344 220.710938 198.210938 218.097656 197.273438 C 216.226562 196.601562 214.359375 195.929688 212.480469 195.277344 C 208.417969 193.871094 204.585938 191.953125 200.804688 189.929688 C 198.957031 188.941406 197.378906 187.558594 196.242188 185.8125 C 194.917969 183.777344 194.398438 181.445312 194.394531 179.019531 C 194.394531 178.175781 194.832031 177.503906 195.421875 176.9375 C 195.996094 176.390625 196.574219 175.847656 197.1875 175.339844 C 202.460938 170.996094 205.386719 165.300781 206.613281 158.695312 C 207.609375 153.332031 207.792969 147.9375 206.328125 142.628906 C 204.339844 135.40625 197.445312 129.824219 190.050781 128.699219 C 179.503906 127.101562 170.265625 134.828125 168.40625 143.886719 C 166.707031 152.164062 167.574219 160.199219 171.59375 167.730469 C 173.019531 170.394531 174.78125 172.859375 177.214844 174.761719 C 177.960938 175.347656 178.605469 176.066406 179.34375 176.671875 C 180.359375 177.5 180.722656 178.546875 180.644531 179.828125 C 180.371094 184.421875 178.132812 187.785156 174.160156 189.980469 C 169.351562 192.636719 164.328125 194.8125 159.117188 196.546875 C 158.4375 196.773438 157.75 196.980469 157.082031 197.222656 C 154.199219 198.265625 152.605469 200.390625 151.976562 203.316406 C 151.359375 206.195312 151.167969 209.121094 150.945312 212.050781 C 150.292969 220.6875 149.039062 229.246094 147.367188 237.742188 C 147.210938 238.519531 146.933594 239.269531 146.726562 240.035156 C 146.386719 241.300781 145.6875 242.3125 144.742188 243.21875 C 142.726562 245.136719 140.714844 247.066406 138.820312 249.101562 C 136.980469 251.074219 135.199219 253.117188 133.554688 255.25 C 131.851562 257.457031 130.152344 259.652344 128.140625 261.578125 C 125.789062 263.832031 123.347656 265.992188 121.070312 268.316406 C 119.691406 269.714844 118.121094 269.835938 116.46875 269.382812 C 114.238281 268.773438 112.144531 267.824219 110.46875 266.113281 C 109.417969 265.035156 108.28125 264.035156 107.160156 263.03125 C 106.535156 262.472656 105.832031 262.238281 104.957031 262.523438 C 104.550781 262.65625 104.035156 262.574219 103.597656 262.472656 C 101.015625 261.878906 100.160156 262.261719 98.792969 264.667969 C 98.679688 264.867188 98.507812 265.035156 98.320312 265.277344 C 97.355469 265.042969 96.941406 264.246094 96.585938 263.496094 C 96.207031 262.714844 95.984375 261.859375 95.703125 261.035156 C 95.523438 260.511719 95.386719 259.964844 95.164062 259.460938 C 94.964844 259.007812 94.605469 258.640625 94.054688 258.769531 C 93.539062 258.890625 93.320312 259.34375 93.269531 259.835938 C 93.21875 260.308594 93.214844 260.789062 93.230469 261.265625 C 93.394531 266 94.734375 270.320312 97.703125 274.085938 C 99.402344 276.25 101.53125 277.875 103.9375 279.164062 C 104.5625 279.5 105.210938 279.792969 106.035156 280.195312 C 105.632812 280.589844 105.371094 280.945312 105.027344 281.171875 C 101.484375 283.539062 100 286.933594 99.824219 291.089844 C 99.636719 295.339844 101.289062 298.808594 104.078125 301.855469 C 104.34375 302.148438 104.621094 302.425781 104.886719 302.71875 C 104.941406 302.777344 104.953125 302.863281 104.996094 302.945312 C 104.75 303.714844 104.085938 303.472656 103.605469 303.421875 C 100.128906 303.066406 96.648438 302.714844 93.183594 302.261719 C 89.5625 301.78125 85.96875 301.121094 82.453125 300.113281 C 76.664062 298.453125 70.789062 297.0625 65.246094 294.632812 C 64.304688 294.21875 63.285156 293.988281 62.324219 293.617188 C 58.699219 292.199219 55.039062 290.859375 51.480469 289.296875 C 48.582031 288.023438 45.785156 286.488281 42.964844 285.03125 C 36.679688 281.78125 30.703125 278.015625 24.757812 274.1875 C 16.785156 269.054688 9.414062 263.15625 2.316406 256.886719 C 1.5625 256.21875 0.652344 255.636719 0.382812 254.53125 C 0.855469 253.640625 1.796875 253.511719 2.570312 253.214844 C 9.175781 250.683594 15.796875 248.210938 22.742188 246.761719 C 28.570312 245.539062 34.398438 244.300781 40.257812 243.21875 C 43.21875 242.675781 46.238281 242.441406 49.234375 242.105469 C 56.347656 241.304688 63.480469 240.667969 70.636719 240.792969 C 78.980469 240.941406 87.3125 241.378906 95.507812 243.179688 C 95.894531 243.261719 96.292969 243.300781 96.6875 243.320312 C 96.8125 243.324219 96.9375 243.191406 97.167969 243.066406 Z M 132.90625 231.808594 C 132.90625 231.9375 132.902344 232.0625 132.902344 232.191406 C 132.984375 232.160156 133.066406 232.128906 133.148438 232.09375 C 133.050781 232.011719 132.949219 231.929688 132.855469 231.847656 C 132.859375 231.613281 132.933594 231.347656 132.855469 231.144531 C 131.226562 227.007812 129.597656 222.878906 127.195312 219.097656 C 123.152344 212.742188 118.207031 207.183594 112.453125 202.355469 C 103.507812 194.84375 93.636719 188.855469 82.769531 184.542969 C 82.121094 184.28125 81.492188 183.976562 80.441406 183.96875 C 81.191406 184.496094 81.679688 184.859375 82.1875 185.199219 C 85.347656 187.332031 88.542969 189.40625 91.660156 191.597656 C 97.316406 195.570312 102.757812 199.820312 108.144531 204.152344 C 112.808594 207.902344 117.070312 212.078125 120.953125 216.585938 C 124.214844 220.367188 127.046875 224.519531 130.054688 228.515625 C 130.769531 229.464844 131.425781 230.464844 132.152344 231.410156 C 132.3125 231.613281 132.652344 231.675781 132.90625 231.808594 Z M 293.394531 184.527344 C 293.34375 184.386719 293.292969 184.246094 293.238281 184.109375 C 292.660156 184.289062 292.058594 184.421875 291.5 184.652344 C 281.414062 188.734375 272.152344 194.203125 263.695312 201.046875 C 258.925781 204.914062 254.640625 209.238281 250.855469 214.101562 C 246.855469 219.238281 244.015625 224.964844 241.734375 231.015625 C 241.628906 231.285156 241.65625 231.601562 241.570312 232.320312 C 242.910156 230.960938 243.679688 229.691406 244.527344 228.484375 C 247.621094 224.050781 250.765625 219.644531 254.410156 215.648438 C 258.644531 211.011719 263.183594 206.6875 268.128906 202.777344 C 274.671875 197.597656 281.3125 192.558594 288.238281 187.90625 C 289.945312 186.761719 291.675781 185.652344 293.394531 184.527344 " fill-opacity="1" fill-rule="evenodd"/></g><path fill="#ffffff" d="M 161.730469 230.0625 C 162.214844 230.953125 162.550781 231.472656 162.796875 232.027344 C 164.804688 236.546875 166.25 241.246094 166.984375 246.132812 C 167.578125 250.109375 167.34375 254.050781 165.980469 257.878906 C 165.34375 259.675781 164.824219 261.511719 164.15625 263.296875 C 163.710938 264.480469 163.191406 265.65625 162.550781 266.746094 C 160.484375 270.226562 158.351562 273.667969 156.238281 277.125 C 156.074219 277.390625 155.886719 277.648438 155.714844 277.914062 C 155.332031 278.503906 154.796875 278.757812 154.09375 278.675781 C 153.308594 278.585938 152.511719 278.523438 151.726562 278.4375 C 148.015625 278.035156 144.316406 277.613281 140.578125 277.574219 C 138.117188 277.546875 135.65625 277.296875 133.203125 277.371094 C 129.636719 277.480469 126.074219 277.773438 122.515625 278.03125 C 121.738281 278.085938 120.980469 278.226562 120.277344 278.09375 C 120.054688 277.558594 120.378906 277.375 120.613281 277.210938 C 121.394531 276.664062 122.167969 276.097656 122.996094 275.636719 C 126.890625 273.476562 130.554688 270.964844 134.242188 268.476562 C 135.953125 267.324219 137.714844 266.242188 139.519531 265.242188 C 142.933594 263.347656 146.054688 261.074219 149.046875 258.558594 C 152.519531 255.632812 154.714844 252.003906 156.015625 247.714844 C 157.667969 242.246094 159.410156 236.804688 161.121094 231.355469 C 161.214844 231.058594 161.382812 230.789062 161.730469 230.0625 " fill-opacity="1" fill-rule="evenodd"/><path fill="#ffffff" d="M 213.410156 230.054688 C 213.816406 231.21875 214.085938 231.945312 214.320312 232.683594 C 215.308594 235.777344 216.296875 238.875 217.269531 241.972656 C 217.890625 243.9375 218.550781 245.894531 219.082031 247.886719 C 220.242188 252.253906 222.570312 255.84375 226.050781 258.699219 C 229.0625 261.171875 232.253906 263.355469 235.628906 265.324219 C 239.328125 267.476562 242.847656 269.925781 246.460938 272.230469 C 247.863281 273.125 249.308594 273.953125 250.722656 274.832031 C 252 275.625 253.265625 276.445312 254.523438 277.269531 C 254.707031 277.390625 254.816406 277.605469 254.960938 277.777344 C 254.648438 278.386719 254.117188 278.167969 253.707031 278.140625 C 250.9375 277.953125 248.171875 277.730469 245.40625 277.519531 C 242.078125 277.257812 238.75 277.253906 235.421875 277.515625 C 232.257812 277.761719 229.089844 277.933594 225.925781 278.164062 C 224.507812 278.269531 223.074219 278.355469 221.675781 278.609375 C 220.390625 278.84375 219.566406 278.476562 218.921875 277.347656 C 217.851562 275.492188 216.6875 273.695312 215.574219 271.867188 C 215.28125 271.394531 215.042969 270.882812 214.722656 270.433594 C 211.429688 265.828125 209.769531 260.535156 208.300781 255.164062 C 207.558594 252.445312 207.578125 249.636719 207.945312 246.894531 C 208.679688 241.4375 210.304688 236.214844 212.613281 231.210938 C 212.738281 230.9375 212.957031 230.703125 213.410156 230.054688 " fill-opacity="1" fill-rule="evenodd"/><path fill="#ffffff" d="M 268.9375 271.847656 C 268.019531 271.910156 267.304688 271.1875 267.457031 270.472656 C 267.863281 268.558594 268.855469 266.984375 270.484375 265.878906 C 270.957031 265.558594 271.605469 265.601562 272.015625 266.03125 C 272.304688 266.339844 272.609375 266.894531 272.523438 267.253906 C 272.144531 268.882812 271.363281 270.332031 270.003906 271.375 C 269.652344 271.652344 269.160156 271.753906 268.9375 271.847656 " fill-opacity="1" fill-rule="evenodd"/><path fill="#ffffff" d="M 106.214844 271.964844 C 105.660156 271.65625 105.019531 271.457031 104.605469 271.039062 C 103.660156 270.085938 102.960938 268.945312 102.589844 267.632812 C 102.386719 266.914062 102.578125 266.316406 103.101562 265.980469 C 103.636719 265.636719 104.300781 265.65625 104.851562 266.085938 C 106.128906 267.085938 106.921875 268.433594 107.449219 269.933594 C 107.640625 270.484375 107.5 271.039062 107.074219 271.453125 C 106.871094 271.660156 106.566406 271.761719 106.214844 271.964844 " fill-opacity="1" fill-rule="evenodd"/><path fill="#ffffff" d="M 132.855469 231.847656 C 132.949219 231.929688 133.050781 232.011719 133.148438 232.09375 C 133.066406 232.128906 132.984375 232.160156 132.902344 232.191406 C 132.902344 232.0625 132.90625 231.9375 132.90625 231.808594 C 132.90625 231.808594 132.855469 231.847656 132.855469 231.847656 " fill-opacity="1" fill-rule="evenodd"/></svg>